<?xml version="1.0" encoding="utf-8"?>
<!-- Generator: Adobe Illustrator 16.0.0, SVG Export Plug-In . SVG Version: 6.00 Build 0)  -->
<!DOCTYPE svg PUBLIC "-//W3C//DTD SVG 1.1//EN" "http://www.w3.org/Graphics/SVG/1.1/DTD/svg11.dtd">
<svg version="1.1" id="Layer_1" xmlns="http://www.w3.org/2000/svg" xmlns:xlink="http://www.w3.org/1999/xlink" x="0px" y="0px"
	 width="500px" height="500px" viewBox="0 0 500 500" enable-background="new 0 0 500 500" xml:space="preserve">
<g>
	<defs>
		<path id="SVGID_1_" d="M304.33,205.79c-2.44,1.24-3.78,6.07-5.11,10.87c-2.07,7.4-4.66,16.68-13.83,19.76
			c-6.56,2.2-13.85-0.58-28.3-6.13c-4.42-1.7-7.51-3.02-9.79-4.1c-4.12-1.81-4.29-1.81-5.24-1.68c-3.41,0.6-7.25,5.82-14.26,15.75
			c-2.42,3.34-4.64,6.84-6.64,10.46c-1.58,3.13-3.65,6.02-6.13,8.48c-7.57,7.36-17.17,12.19-27.57,13.85
			c-2.18,0.34-4.38,0.47-6.58,0.47c-0.15,0-0.32-0.02-0.5-0.02V439.3h133.41V207.87c-3.67-1.93-6.06-2.44-7.57-2.44
			C305.28,205.44,304.67,205.62,304.33,205.79"/>
	</defs>
	<clipPath id="SVGID_2_">
		<use xlink:href="#SVGID_1_"  overflow="visible"/>
	</clipPath>
	
		<linearGradient id="SVGID_3_" gradientUnits="userSpaceOnUse" x1="38.5229" y1="589.6211" x2="60.6152" y2="589.6211" gradientTransform="matrix(6.0386 0 0 -6.0386 -52.2495 3882.8394)">
		<stop  offset="0" style="stop-color:#008FA2"/>
		<stop  offset="1" style="stop-color:#005574"/>
	</linearGradient>
	<rect x="180.37" y="205.44" clip-path="url(#SVGID_2_)" fill="url(#SVGID_3_)" width="133.41" height="233.86"/>
</g>
<g>
	<defs>
		<path id="SVGID_4_" d="M180.37,145.8v115.57c1.77,0.04,3.52-0.09,5.24-0.32c7.81-1.23,15.06-4.85,20.8-10.38
			c1.68-1.73,3.11-3.73,4.19-5.91c2.2-3.97,4.62-7.81,7.27-11.52c8.48-11.97,13.59-19.16,22.11-20.66
			c4.27-0.55,8.59,0.31,12.25,2.53c2.16,0.98,5.03,2.28,9.08,3.85c9.56,3.61,17.75,6.78,20.21,5.96c2.83-0.95,4.23-5.2,6-11.53
			c1.92-6.96,4.12-14.9,11.43-18.44c4.68-2.13,10.07-2.19,14.82-0.25V145.8H180.37z"/>
	</defs>
	<clipPath id="SVGID_5_">
		<use xlink:href="#SVGID_4_"  overflow="visible"/>
	</clipPath>
	
		<linearGradient id="SVGID_6_" gradientUnits="userSpaceOnUse" x1="38.5229" y1="608.3994" x2="60.6152" y2="608.3994" gradientTransform="matrix(6.0386 0 0 -6.0386 -52.2495 3877.4644)">
		<stop  offset="0" style="stop-color:#008FA2"/>
		<stop  offset="1" style="stop-color:#005574"/>
	</linearGradient>
	<rect x="180.37" y="145.8" clip-path="url(#SVGID_5_)" fill="url(#SVGID_6_)" width="133.41" height="115.61"/>
</g>
<g>
	<defs>
		<path id="SVGID_7_" d="M248.24,27.8c-5.59,23.73-17.02,45.67-33.24,63.8c-3.95,9.36-2.91,20.06,2.7,28.52
			c5.63,8.46,15.1,13.55,25.26,13.55h8.26c10.29,0,19.91-5.26,25.5-13.92c5.59-8.66,6.38-19.57,2.09-28.96L248.91,25L248.24,27.8z"
			/>
	</defs>
	<clipPath id="SVGID_8_">
		<use xlink:href="#SVGID_7_"  overflow="visible"/>
	</clipPath>
	
		<linearGradient id="SVGID_9_" gradientUnits="userSpaceOnUse" x1="36.7314" y1="653.3457" x2="58.8225" y2="653.3457" gradientTransform="matrix(3.12 0 0 -3.12 98.0599 2117.7546)">
		<stop  offset="0" style="stop-color:#008FA2"/>
		<stop  offset="1" style="stop-color:#005574"/>
	</linearGradient>
	<rect x="211.05" y="25" clip-path="url(#SVGID_8_)" fill="url(#SVGID_9_)" width="72.05" height="108.67"/>
</g>
<g>
	<defs>
		<polygon id="SVGID_10_" points="110,450.73 118.07,475 376.12,475 384.19,450.73 		"/>
	</defs>
	<clipPath id="SVGID_11_">
		<use xlink:href="#SVGID_10_"  overflow="visible"/>
	</clipPath>
	
		<linearGradient id="SVGID_12_" gradientUnits="userSpaceOnUse" x1="39.5176" y1="584.6592" x2="61.6064" y2="584.6592" gradientTransform="matrix(12.4131 0 0 -12.4131 -380.5369 7720.3027)">
		<stop  offset="0" style="stop-color:#008FA2"/>
		<stop  offset="1" style="stop-color:#005574"/>
	</linearGradient>
	<rect x="110" y="450.73" clip-path="url(#SVGID_11_)" fill="url(#SVGID_12_)" width="274.19" height="24.27"/>
</g>
<g>
</g>
<g>
</g>
<g>
</g>
<g>
</g>
<g>
</g>
<g>
</g>
<g>
</g>
<g>
</g>
<g>
</g>
<g>
</g>
<g>
</g>
<g>
</g>
<g>
</g>
<g>
</g>
<g>
</g>
</svg>
