<?xml version="1.0" encoding="utf-8"?>
<!-- Generator: Adobe Illustrator 16.0.0, SVG Export Plug-In . SVG Version: 6.00 Build 0)  -->
<!DOCTYPE svg PUBLIC "-//W3C//DTD SVG 1.1//EN" "http://www.w3.org/Graphics/SVG/1.1/DTD/svg11.dtd">
<svg version="1.1" id="Layer_1" xmlns="http://www.w3.org/2000/svg" xmlns:xlink="http://www.w3.org/1999/xlink" x="0px" y="0px"
	 width="500px" height="500px" viewBox="0 0 500 500" enable-background="new 0 0 500 500" xml:space="preserve">
<g>
	<defs>
		<path id="SVGID_1_" d="M104.18,304.97c-3.5-3.51-5.65-8.35-5.65-13.7c0-5.34,2.16-10.17,5.65-13.68c3.5-3.48,8.33-5.64,13.68-5.64
			c5.33,0,10.17,2.16,13.68,5.64c3.48,3.51,5.65,8.33,5.65,13.68c0,5.35-2.17,10.18-5.65,13.7c-3.51,3.48-8.35,5.64-13.68,5.64
			C112.52,310.6,107.68,308.45,104.18,304.97 M73.92,291.27c0,24.28,19.66,43.96,43.94,43.96c24.26,0,43.94-19.68,43.94-43.96
			c0-24.26-19.68-43.94-43.94-43.94C93.58,247.33,73.92,267.01,73.92,291.27 M364.63,304.97c-3.48-3.51-5.65-8.35-5.65-13.7
			c0-5.34,2.17-10.17,5.65-13.68c3.5-3.48,8.33-5.64,13.68-5.64c5.34,0,10.17,2.16,13.68,5.64c3.48,3.51,5.67,8.33,5.67,13.68
			c0,5.35-2.19,10.18-5.67,13.7c-3.51,3.48-8.33,5.64-13.68,5.64C372.97,310.6,368.15,308.45,364.63,304.97 M334.37,291.27
			c0,24.28,19.68,43.96,43.94,43.96c24.3,0,43.94-19.68,43.94-43.96c0-24.26-19.64-43.94-43.94-43.94
			C354.05,247.33,334.37,267.01,334.37,291.27 M177.44,142.16c16.47,0.31,33.29,1.05,50.57,2.28c10.11,0.72,25.21,7.75,40.77,17.01
			c9.42,5.6,18.81,11.98,27.36,18.32c6.12,4.51,4.49,13.61-4.48,13.05c-36.8-2.25-77.68-3.01-117.25-3.01L177.44,142.16z
			 M156.35,142.04l-3.04,47.85c-22.36,0.15-43.98,0.53-63.83,0.94c-12.65,0.29-14.68-7.03-12.25-17.67
			c1.99-7.77,4.49-15.55,7.65-23.25c1.79-4.38,3.91-5.38,7.21-5.56C113.46,142.96,134.9,142.11,156.35,142.04z M81.24,123.97
			c-8.88,0.6-15.13,5.98-19.57,13.75c-12.47,21.69-19.1,41.44-22.54,62.13h10.47c3.9,0,7.97,3.3,7.05,7.03l-1.76,7.03
			c-0.94,3.79-3.19,7.05-7.07,7.05H36.62c-0.83,11-1.07,22.47-1.07,34.81l-3.26,2.84c-4.82,4.17-7.28,9.6-7.28,15.96v12.56
			c0,19.08,17.07,18.21,29.9,18.19h6.67c-1.11-4.49-1.72-9.21-1.72-14.06c0-32.02,25.97-58,58.02-58c32.02,0,58,25.98,58,58
			c0,4.84-0.62,9.53-1.7,14.01c49.43,0,98.25,0.02,147.86,0.04c-1.11-4.48-1.7-9.21-1.7-14.04c0-32.02,25.98-58,58-58
			c32.05,0,58,25.98,58,58c0,4.86-0.58,9.57-1.72,14.06h5.27c15.4,0,35.13-2.28,35.13-22.18v-9.04c0-6.07-3.35-10.31-8.79-12.7
			c-0.94-4.29-1.41-8.84-1.81-13.46l-6.54-0.62c-9.28-0.89-14.33-8.1-16.25-15.8h20.86c-0.09-0.54-0.2-1.07-0.34-1.59
			c-5.83-24.75-100.27-37.16-122.47-40.95c-21.36-21.6-78.4-63.25-110.15-65.54c-23.23-1.67-45.95-2.45-68.55-2.45
			C134.48,121,108.17,122.05,81.24,123.97"/>
	</defs>
	<clipPath id="SVGID_2_">
		<use xlink:href="#SVGID_1_"  overflow="visible"/>
	</clipPath>
	
		<linearGradient id="SVGID_3_" gradientUnits="userSpaceOnUse" x1="48.6602" y1="603.625" x2="67.2148" y2="603.625" gradientTransform="matrix(24.2529 0 0 -24.2529 -1155.1426 14867.7832)">
		<stop  offset="0" style="stop-color:#008FA2"/>
		<stop  offset="1" style="stop-color:#005574"/>
	</linearGradient>
	<rect x="25" y="121" clip-path="url(#SVGID_2_)" fill="url(#SVGID_3_)" width="450" height="214.23"/>
</g>
<g>
</g>
<g>
</g>
<g>
</g>
<g>
</g>
<g>
</g>
<g>
</g>
<g>
</g>
<g>
</g>
<g>
</g>
<g>
</g>
<g>
</g>
<g>
</g>
<g>
</g>
<g>
</g>
<g>
</g>
</svg>
