<?xml version="1.0" encoding="utf-8"?>
<!-- Generator: Adobe Illustrator 16.0.0, SVG Export Plug-In . SVG Version: 6.00 Build 0)  -->
<!DOCTYPE svg PUBLIC "-//W3C//DTD SVG 1.1//EN" "http://www.w3.org/Graphics/SVG/1.1/DTD/svg11.dtd">
<svg version="1.1" id="Layer_1" xmlns="http://www.w3.org/2000/svg" xmlns:xlink="http://www.w3.org/1999/xlink" x="0px" y="0px"
	 width="500px" height="500px" viewBox="0 0 500 500" enable-background="new 0 0 500 500" xml:space="preserve">
<path fill="#FFFFFF" d="M343.46,199.14c-2.77-1.53-5.51-3.21-8.12-4.98l-42.4-28.64c-12.87-8.7-27.88-13.28-43.42-13.28h-77.83
	c-20.66,0-40.1,8.02-54.73,22.61c-7.51,7.49-16.1,13.77-25.49,18.63c-5.53,2.88-8.98,8.55-8.98,14.81c0,9.2,7.49,16.67,16.67,16.67
	h26.54c3.54,0,6.41-2.87,6.41-6.41s-2.87-6.41-6.41-6.41H99.17c-2.13,0-3.86-1.73-3.86-3.86c0-1.45,0.79-2.75,2.08-3.43
	c10.55-5.47,20.17-12.51,28.63-20.93c12.19-12.17,28.42-18.87,45.67-18.87h17.43v47.08h-21.31c-3.53,0-6.41,2.87-6.41,6.41
	s2.88,6.41,6.41,6.41h175.79c5.27,0,9.56-4.28,9.56-9.56C353.16,208.64,349.44,202.42,343.46,199.14 M201.93,212.13v-47.08h47.58
	c12.97,0,25.49,3.83,36.23,11.09l42.41,28.64c2.94,1.99,6.01,3.87,9.14,5.58c0.79,0.43,1.48,1.05,1.99,1.77H201.93z"/>
<path fill="#FFFFFF" d="M217.82,234.69h-19.79c-3.55,0-6.42,2.88-6.42,6.41c0,3.54,2.87,6.41,6.42,6.41h19.79
	c3.54,0,6.41-2.87,6.41-6.41C224.23,237.57,221.36,234.69,217.82,234.69"/>
<path fill="#FFFFFF" d="M472.49,229.32l-2.03-3.35c-7.64-12.68-20.33-21.59-34.83-24.47l-16.55-3.29l-12.82-2.54l-7.82-1.56
	l-12.82-2.54l-8.5-1.7c-11.74-2.33-23.18-9.41-30.78-14.53l-42.4-28.66C287.81,135.77,268.98,130,249.52,130h-77.83
	c-25.9,0-50.25,10.08-68.61,28.34c-11.6,11.58-26.21,19.47-42.25,22.82l-9.21,1.93C37.94,185.96,28,198.19,28,212.16v62.08
	c0,7.41,4.38,14.15,11.14,17.15l25.54,11.34c1.54,8.09,5.43,15.79,11.67,22.03c8.29,8.29,19.19,12.44,30.09,12.44
	c10.87,0,21.77-4.16,30.04-12.44c5.33-5.33,8.96-11.74,10.85-18.54h212.89c1.92,6.8,5.52,13.21,10.85,18.54
	c8.04,8.04,18.71,12.46,30.07,12.46c11.37,0,22.05-4.42,30.07-12.46c5.33-5.33,8.95-11.74,10.85-18.54h12.16
	c13.11,0,23.77-10.67,23.77-23.77V249.2C478.01,242.19,476.09,235.32,472.49,229.32 M127.42,315.7c-5.61,5.61-13.07,8.7-20.98,8.7
	c-7.94,0-15.4-3.09-21.02-8.7c-9-9-11-22.38-6.02-33.35c0.05-0.09,0.09-0.18,0.13-0.26c0.15-0.33,0.3-0.64,0.48-0.96
	c0.08-0.15,0.15-0.3,0.23-0.45c0.15-0.28,0.31-0.56,0.46-0.83c0.11-0.2,0.21-0.38,0.34-0.58c0.15-0.24,0.3-0.46,0.45-0.71
	c0.15-0.21,0.29-0.43,0.43-0.64c0.15-0.2,0.3-0.43,0.44-0.63c0.16-0.24,0.36-0.46,0.53-0.71c0.16-0.17,0.29-0.35,0.43-0.54
	c0.21-0.25,0.44-0.5,0.65-0.76c0.14-0.14,0.24-0.3,0.38-0.44c0.34-0.35,0.66-0.71,1.01-1.06c0.03-0.04,0.06-0.06,0.09-0.1
	c0.06-0.05,0.13-0.11,0.21-0.17c0.29-0.3,0.58-0.58,0.88-0.85c0.08-0.08,0.18-0.14,0.25-0.21c0.29-0.26,0.6-0.53,0.9-0.79
	c0.02-0.03,0.08-0.04,0.1-0.06c10.84-8.79,26.53-8.78,37.38,0.04c0.03,0,0.03,0.01,0.05,0.03c0.31,0.28,0.65,0.55,0.96,0.85
	c0.06,0.05,0.11,0.09,0.16,0.14c0.39,0.35,0.75,0.69,1.1,1.04c0.4,0.4,0.76,0.79,1.13,1.19c0.16,0.19,0.33,0.38,0.48,0.54
	c0.19,0.23,0.38,0.45,0.55,0.66c0.2,0.26,0.4,0.51,0.6,0.78l0.33,0.44c0.23,0.31,0.45,0.64,0.68,0.98l0.11,0.17
	C138.83,289.94,137.54,305.59,127.42,315.7 M422.16,315.7c-5.61,5.61-13.07,8.7-21.01,8.7c-7.94,0-15.4-3.09-20.99-8.7
	c-10.12-10.12-11.4-25.76-3.86-37.27c0.04-0.06,0.08-0.11,0.1-0.17c0.23-0.34,0.45-0.66,0.69-0.98l0.33-0.44
	c0.19-0.26,0.39-0.51,0.59-0.78c0.17-0.21,0.36-0.43,0.56-0.65c0.15-0.17,0.3-0.36,0.46-0.55c0.35-0.4,0.73-0.79,1.13-1.19
	c5.6-5.6,13.06-8.69,20.99-8.69c7.95,0,15.4,3.09,21.01,8.69c0.39,0.4,0.76,0.79,1.11,1.19c0.17,0.19,0.33,0.38,0.48,0.55
	c0.19,0.23,0.38,0.44,0.55,0.65c0.21,0.26,0.4,0.51,0.6,0.78c0.11,0.14,0.23,0.28,0.31,0.44c0.25,0.31,0.48,0.64,0.69,0.98
	l0.13,0.17C433.57,289.94,432.28,305.59,422.16,315.7 M465.19,282.45L465.19,282.45c0,6.05-4.91,10.95-10.95,10.95h-10.55
	c-0.25-9.29-3.53-18.16-9.44-25.44c-0.04-0.05-0.08-0.1-0.11-0.15c-0.38-0.45-0.75-0.89-1.13-1.31c-0.11-0.11-0.2-0.23-0.3-0.34
	c-0.41-0.45-0.83-0.89-1.25-1.33c-0.07-0.08-0.14-0.15-0.22-0.23c-5.52-5.51-12.29-9.33-19.67-11.18c-3.37-0.84-6.85-1.26-10.4-1.26
	c-2.83,0-5.63,0.26-8.36,0.8c-8.17,1.63-15.69,5.62-21.71,11.64c-0.06,0.08-0.15,0.15-0.21,0.21c-0.43,0.45-0.85,0.89-1.26,1.34
	c-0.09,0.1-0.17,0.21-0.29,0.33c-0.38,0.44-0.76,0.88-1.13,1.33c-0.04,0.05-0.08,0.09-0.11,0.14c-5.91,7.27-9.19,16.16-9.45,25.45
	H148.96c-0.25-9.3-3.56-18.19-9.48-25.48c-0.03-0.04-0.05-0.08-0.09-0.11c-0.38-0.46-0.78-0.93-1.19-1.39
	c-0.09-0.09-0.14-0.18-0.21-0.25c-0.48-0.54-0.98-1.05-1.5-1.57c-2.05-2.07-4.31-3.88-6.66-5.43c-7.06-4.67-15.22-7-23.38-7
	c-10.9,0-21.81,4.14-30.09,12.43c-0.46,0.49-0.93,0.96-1.38,1.46c-0.13,0.14-0.25,0.29-0.4,0.44c-0.3,0.35-0.63,0.71-0.91,1.09
	c-0.14,0.16-0.26,0.31-0.4,0.49c-0.31,0.39-0.63,0.78-0.91,1.19c-0.1,0.11-0.2,0.24-0.29,0.35c-0.79,1.11-1.55,2.25-2.24,3.42
	c-0.03,0.03-0.03,0.06-0.05,0.09c-0.34,0.58-0.65,1.15-0.96,1.74c-0.01,0.01-0.02,0.04-0.02,0.05c-2.24,4.26-3.74,8.86-4.44,13.63
	l-19.98-8.89c-2.14-0.96-3.53-3.09-3.53-5.43v-62.08c0-7.95,5.66-14.9,13.42-16.52l9.23-1.93c18.46-3.87,35.3-12.96,48.67-26.28
	c15.92-15.87,37.07-24.61,59.55-24.61h77.83c16.91,0,33.24,5.01,47.25,14.46l42.4,28.65c8.51,5.73,21.44,13.71,35.45,16.5
	l58.51,11.63c10.97,2.19,20.57,8.93,26.34,18.51l2.03,3.36c2.42,4.02,3.69,8.6,3.69,13.27V282.45z"/>
<path fill="#FFFFFF" d="M106.43,275.23c-5.2,0-10.08,2.02-13.76,5.7c-3.68,3.68-5.71,8.56-5.71,13.76c0,5.21,2.03,10.09,5.71,13.77
	c3.68,3.68,8.56,5.71,13.76,5.71s10.08-2.03,13.76-5.71c7.59-7.59,7.59-19.93,0-27.53C116.51,277.24,111.62,275.23,106.43,275.23
	 M111.12,299.39c-1.25,1.25-2.93,1.94-4.7,1.94c-1.78,0-3.44-0.69-4.69-1.94c-1.26-1.25-1.94-2.93-1.94-4.71
	c0-1.77,0.68-3.43,1.94-4.7c1.25-1.25,2.92-1.94,4.69-1.94c1.77,0,3.44,0.69,4.7,1.94C113.71,292.58,113.71,296.8,111.12,299.39"/>
<path fill="#FFFFFF" d="M401.17,275.23c-5.21,0-10.09,2.02-13.77,5.7c-7.59,7.6-7.59,19.94,0,27.53c3.68,3.68,8.56,5.71,13.77,5.71
	c5.18,0,10.08-2.03,13.75-5.71c3.68-3.68,5.71-8.56,5.71-13.76c0-5.21-2.03-10.09-5.71-13.77
	C411.24,277.24,406.35,275.23,401.17,275.23 M405.85,299.39c-1.25,1.25-2.92,1.95-4.68,1.95c-1.79,0-3.46-0.7-4.71-1.95
	c-2.59-2.59-2.59-6.81,0-9.4c1.25-1.25,2.92-1.94,4.71-1.94c1.77,0,3.43,0.69,4.68,1.94c1.26,1.26,1.95,2.93,1.95,4.71
	C407.8,296.46,407.11,298.14,405.85,299.39"/>
<g>
</g>
<g>
</g>
<g>
</g>
<g>
</g>
<g>
</g>
<g>
</g>
<g>
</g>
<g>
</g>
<g>
</g>
<g>
</g>
<g>
</g>
<g>
</g>
<g>
</g>
<g>
</g>
<g>
</g>
</svg>
