<?xml version="1.0" encoding="utf-8"?>
<!-- Generator: Adobe Illustrator 16.0.0, SVG Export Plug-In . SVG Version: 6.00 Build 0)  -->
<!DOCTYPE svg PUBLIC "-//W3C//DTD SVG 1.1//EN" "http://www.w3.org/Graphics/SVG/1.1/DTD/svg11.dtd">
<svg version="1.1" id="Layer_1" xmlns="http://www.w3.org/2000/svg" xmlns:xlink="http://www.w3.org/1999/xlink" x="0px" y="0px"
	 width="500px" height="500px" viewBox="0 0 500 500" enable-background="new 0 0 500 500" xml:space="preserve">
<path fill="#FFFFFF" d="M297.5,277.37c-5.48,0-9.95-4.45-9.95-9.95c0-18.25-14.83-33.08-33.06-33.08
	c-18.27,0-33.16,14.83-33.16,33.08c0,5.5-4.47,9.95-9.95,9.95c-5.5,0-9.99-4.45-9.99-9.95c0-29.21,23.83-53,53.1-53
	c29.21,0,52.96,23.79,52.96,53C307.45,272.92,303,277.37,297.5,277.37"/>
<path fill="#FFFFFF" d="M373.59,282.99c-5.5,0-9.95-4.47-9.95-9.95v-14.87l-26.29-5.87c-3.79-0.84-6.73-3.79-7.56-7.58
	c-1.94-8.69-5.34-16.91-10.13-24.41c-2.06-3.27-2.08-7.42-0.02-10.69l14.44-22.8l-4.86-4.86l-22.8,14.42
	c-3.25,2.08-7.38,2.08-10.65,0c-7.6-4.8-15.82-8.2-24.47-10.13c-3.75-0.83-6.71-3.79-7.56-7.54l-5.85-26.3h-6.88l-5.89,26.3
	c-0.82,3.75-3.79,6.71-7.54,7.56c-8.63,1.91-16.87,5.31-24.47,10.13c-3.25,2.06-7.4,2.06-10.65-0.02l-22.8-14.42l-4.84,4.86
	l14.48,22.78c2.06,3.28,2.06,7.44-0.04,10.71c-4.74,7.44-8.16,15.68-10.17,24.47c-0.85,3.75-3.79,6.69-7.54,7.52l-26.3,5.87v14.87
	c0,5.48-4.45,9.95-9.95,9.95c-5.52,0-9.97-4.47-9.97-9.95v-22.85c0-4.67,3.25-8.71,7.79-9.72l28.14-6.28
	c1.98-6.65,4.63-13.02,7.91-19.05l-15.45-24.39c-2.53-3.93-1.96-9.08,1.34-12.38l16.15-16.13c3.26-3.28,8.4-3.87,12.36-1.38
	L208,176.33c6.06-3.32,12.44-5.97,19.03-7.91l6.28-28.12c1.01-4.55,5.05-7.79,9.72-7.79h22.84c4.67,0,8.71,3.25,9.72,7.79l6.3,28.12
	c6.59,1.94,12.94,4.59,19.03,7.91l24.39-15.47c3.95-2.49,9.08-1.9,12.38,1.38l16.13,16.13c3.3,3.29,3.87,8.44,1.36,12.36
	l-15.43,24.41c3.3,6.06,5.95,12.42,7.89,19.05l28.12,6.28c4.55,1.01,7.79,5.05,7.79,9.72v22.85
	C383.54,278.52,379.07,282.99,373.59,282.99"/>
<path fill="#FFFFFF" d="M321.75,481.09h-0.02H168.92c-3.17,0-6.12-1.5-7.99-4.02c-1.89-2.53-2.45-5.79-1.56-8.8l28.65-95.52
	c1.28-4.22,5.13-7.11,9.56-7.11h95.5c4.41,0,8.28,2.89,9.54,7.11l28.45,94.88c0.43,1.11,0.64,2.27,0.64,3.5
	C331.72,476.62,327.27,481.09,321.75,481.09 M182.29,461.17h126.08l-22.68-75.62h-80.71L182.29,461.17z"/>
<path fill="#FFFFFF" d="M369.51,481.09H121.16c-5.52,0-9.99-4.47-9.99-9.95c0-5.52,4.47-9.97,9.99-9.97h248.34
	c5.5,0,9.95,4.45,9.95,9.97C379.46,476.62,375.01,481.09,369.51,481.09"/>
<path fill="#FFFFFF" d="M102.04,321.72H35.16c-5.5,0-9.95-4.45-9.95-9.95c0-5.5,4.45-9.97,9.95-9.97h66.88
	c5.48,0,9.95,4.47,9.95,9.97C111.99,317.27,107.52,321.72,102.04,321.72"/>
<path fill="#FFFFFF" d="M465.05,321.72H144.53c-5.52,0-9.97-4.45-9.97-9.95c0-5.5,4.45-9.97,9.97-9.97h320.52
	c5.48,0,9.95,4.47,9.95,9.97C475,317.27,470.53,321.72,465.05,321.72"/>
<path fill="#FFFFFF" d="M441.46,385.57H58.74c-18.5,0-33.54-15.04-33.54-33.55V74.37c0-18.48,15.04-33.53,33.54-33.53h382.72
	c18.5,0,33.54,15.04,33.54,33.53v277.65C475,370.52,459.96,385.57,441.46,385.57 M58.74,60.77c-7.5,0-13.6,6.1-13.6,13.6v277.65
	c0,7.5,6.1,13.62,13.6,13.62h382.72c7.52,0,13.63-6.12,13.63-13.62V74.37c0-7.5-6.1-13.6-13.63-13.6H58.74z"/>
<path fill="#FFFFFF" d="M124.59,451.2H34.95c-5.48,0-9.95-4.45-9.95-9.95c0-5.5,4.47-9.95,9.95-9.95h89.63
	c5.5,0,9.95,4.45,9.95,9.95C134.54,446.75,130.09,451.2,124.59,451.2"/>
<path fill="#FFFFFF" d="M74.79,421.33H34.95c-5.48,0-9.95-4.45-9.95-9.95c0-5.52,4.47-9.97,9.95-9.97h39.84
	c5.5,0,9.95,4.45,9.95,9.97C84.74,416.88,80.29,421.33,74.79,421.33"/>
<path fill="#FFFFFF" d="M463.2,451.2h-79.66c-5.5,0-9.95-4.45-9.95-9.95c0-5.5,4.45-9.95,9.95-9.95h79.66c5.5,0,9.95,4.45,9.95,9.95
	C473.15,446.75,468.7,451.2,463.2,451.2"/>
<path fill="#FFFFFF" d="M463.2,421.33h-29.87c-5.5,0-9.95-4.45-9.95-9.95c0-5.52,4.45-9.97,9.95-9.97h29.87
	c5.5,0,9.95,4.45,9.95,9.97C473.15,416.88,468.7,421.33,463.2,421.33"/>
<path fill="#FFFFFF" d="M423.36,321.72c-5.48,0-9.95-4.45-9.95-9.95V102.63H84.76v209.14c0,5.5-4.45,9.95-9.97,9.95
	c-5.48,0-9.95-4.45-9.95-9.95V92.66c0-5.48,4.47-9.95,9.95-9.95h348.57c5.5,0,9.95,4.47,9.95,9.95v219.11
	C433.31,317.27,428.86,321.72,423.36,321.72"/>
<path fill="#FFFFFF" d="M244.89,331.69c5.75,0,10.44,4.68,10.44,10.44c0,5.77-4.68,10.44-10.44,10.44
	c-5.79,0-10.44-4.67-10.44-10.44C234.45,336.38,239.1,331.69,244.89,331.69"/>
<rect x="104.68" y="122.57" fill="#FFFFFF" width="19.92" height="19.92"/>
<rect x="134.56" y="122.57" fill="#FFFFFF" width="19.92" height="19.92"/>
<rect x="164.45" y="122.57" fill="#FFFFFF" width="19.9" height="19.92"/>
<g>
</g>
<g>
</g>
<g>
</g>
<g>
</g>
<g>
</g>
<g>
</g>
<g>
</g>
<g>
</g>
<g>
</g>
<g>
</g>
<g>
</g>
<g>
</g>
<g>
</g>
<g>
</g>
<g>
</g>
</svg>
