<?xml version="1.0" encoding="utf-8"?>
<!-- Generator: Adobe Illustrator 16.0.0, SVG Export Plug-In . SVG Version: 6.00 Build 0)  -->
<!DOCTYPE svg PUBLIC "-//W3C//DTD SVG 1.1//EN" "http://www.w3.org/Graphics/SVG/1.1/DTD/svg11.dtd">
<svg version="1.1" id="Layer_1" xmlns="http://www.w3.org/2000/svg" xmlns:xlink="http://www.w3.org/1999/xlink" x="0px" y="0px"
	 width="500px" height="500px" viewBox="0 0 500 500" enable-background="new 0 0 500 500" xml:space="preserve">
<path fill-rule="evenodd" clip-rule="evenodd" fill="#007D95" d="M49.44,153.33l328.54-74.5l-4.56-20.08
	c-1.25-5.72-7.04-9.31-12.68-8.04l-307.9,69.35c-5.72,1.27-9.3,6.98-8.07,12.7C46.36,139.59,47.87,146.49,49.44,153.33
	 M46.71,101.83L358.5,31.67c14.88-3.33,29.7,6.02,33.03,20.89l32.68,144.43h-19.53l-14.81-65.42L61.33,206.08l20.33,89.68l1.83,7.95
	c0.68,3.19,3.9,5.27,7.12,4.51l2.42-0.55v19.11l-0.34,0.11c-12.33,2.79-24.63-5.06-27.46-17.34L25.72,134.92
	c-1.66-7.43-0.45-14.41,3.58-20.89c4.05-6.48,9.96-10.53,17.41-12.19V101.83z M127.64,202.2c-15.22,0-27.61,12.44-27.61,27.67
	v179.66c0,15.23,12.39,27.62,27.61,27.62h319.68c15.23,0,27.67-12.44,27.67-27.62V229.87c0-15.23-12.44-27.67-27.67-27.67H127.64z
	 M440.61,282.63v-36.57c0-2.39-1.88-4.26-4.24-4.26h-81.81c-2.32,0-4.23,1.92-4.23,4.26v36.57c0,2.33,1.91,4.24,4.23,4.24h81.81
	C438.63,286.87,440.61,285,440.61,282.63 M380.3,393.5c-2.37,0-4.3-1.91-4.3-4.23v-8.51c0-2.33,1.92-4.24,4.3-4.24h56.01
	c2.32,0,4.24,1.91,4.24,4.24v8.51c0,2.32-1.92,4.23-4.24,4.23H380.3z M302.15,393.5c-2.33,0-4.24-1.91-4.24-4.23v-8.46
	c0-2.39,1.91-4.24,4.24-4.24h56.05c2.32,0,4.26,1.91,4.26,4.24v8.46c0,2.32-1.94,4.23-4.26,4.23H302.15z M224.06,393.5
	c-2.33,0-4.24-1.91-4.24-4.23v-8.46c0-2.39,1.91-4.24,4.24-4.24h56.05c2.32,0,4.23,1.91,4.23,4.24v8.46c0,2.32-1.91,4.23-4.23,4.23
	H224.06z M145.96,393.5c-2.32,0-4.26-1.91-4.26-4.23v-8.46c0-2.39,1.94-4.24,4.26-4.24H202c2.35,0,4.24,1.91,4.24,4.24v8.46
	c0,2.32-1.9,4.23-4.24,4.23H145.96z"/>
<g>
</g>
<g>
</g>
<g>
</g>
<g>
</g>
<g>
</g>
<g>
</g>
<g>
</g>
<g>
</g>
<g>
</g>
<g>
</g>
<g>
</g>
<g>
</g>
<g>
</g>
<g>
</g>
<g>
</g>
</svg>
