<?xml version="1.0" encoding="utf-8"?>
<!-- Generator: Adobe Illustrator 16.0.0, SVG Export Plug-In . SVG Version: 6.00 Build 0)  -->
<!DOCTYPE svg PUBLIC "-//W3C//DTD SVG 1.1//EN" "http://www.w3.org/Graphics/SVG/1.1/DTD/svg11.dtd">
<svg version="1.1" id="Layer_1" xmlns="http://www.w3.org/2000/svg" xmlns:xlink="http://www.w3.org/1999/xlink" x="0px" y="0px"
	 width="500px" height="500px" viewBox="0 0 500 500" enable-background="new 0 0 500 500" xml:space="preserve">
<path fill="#FFFFFF" d="M463.54,296.53c-6.33,0-11.47,5.14-11.47,11.47v43.77c0,25.25-20.56,45.79-45.81,45.79H93.75
	c-25.27,0-45.83-20.54-45.83-45.79V308c0-6.33-5.14-11.47-11.47-11.47S25,301.67,25,308v43.77c0,37.89,30.84,68.73,68.75,68.73
	h312.52c37.91,0,68.75-30.84,68.75-68.73V308C475.01,301.67,469.87,296.53,463.54,296.53"/>
<path fill="#FFFFFF" d="M106.02,364.57h287.99c6.33,0,11.45-5.12,11.45-11.45s-5.12-11.47-11.45-11.47H106.02
	c-6.33,0-11.47,5.14-11.47,11.47S99.69,364.57,106.02,364.57"/>
<path fill="#FFFFFF" d="M134.97,196.69l95.95,85.7c5.44,4.86,12.25,7.31,19.09,7.31c6.8,0,13.63-2.44,19.07-7.31l95.95-85.7
	c4.69-4.23,5.1-11.47,0.91-16.18c-4.23-4.71-11.47-5.12-16.18-0.91l-88.33,78.9V36.47c0-6.33-5.12-11.47-11.43-11.47
	c-6.33,0-11.47,5.14-11.47,11.47v222.02l-88.31-78.9c-4.71-4.21-11.98-3.8-16.18,0.91S130.25,192.46,134.97,196.69"/>
<g>
</g>
<g>
</g>
<g>
</g>
<g>
</g>
<g>
</g>
<g>
</g>
<g>
</g>
<g>
</g>
<g>
</g>
<g>
</g>
<g>
</g>
<g>
</g>
<g>
</g>
<g>
</g>
<g>
</g>
</svg>
