<?xml version="1.0" encoding="utf-8"?>
<!-- Generator: Adobe Illustrator 16.0.0, SVG Export Plug-In . SVG Version: 6.00 Build 0)  -->
<!DOCTYPE svg PUBLIC "-//W3C//DTD SVG 1.1//EN" "http://www.w3.org/Graphics/SVG/1.1/DTD/svg11.dtd">
<svg version="1.1" id="Layer_1" xmlns="http://www.w3.org/2000/svg" xmlns:xlink="http://www.w3.org/1999/xlink" x="0px" y="0px"
	 width="500px" height="500px" viewBox="0 0 500 500" enable-background="new 0 0 500 500" xml:space="preserve">
<path fill="#FFFFFF" d="M73.12,278.5L73.12,278.5c-1.57,2.1-2.63,4.74-2.63,7.92c0,6.87,5.28,12.15,12.15,12.15l166.04,0.54
	L185.74,479.4c-1.57,4.76-0.52,10.6,3.7,14.29c5.3,4.23,13.23,3.71,17.44-1.57c25.39-31.22,49.71-60.28,74.03-89.37
	c49.2-59.23,98.37-118.45,144.89-178.73c1.59-2.12,2.64-4.76,2.64-7.4c0-6.87-5.81-12.7-12.68-12.7l-166.03-0.52l62.92-180.3
	c1.59-4.76,0.52-10.58-3.69-14.29c-5.32-4.21-13.24-3.69-17.47,1.59c-24.32,29.63-48.63,59.22-72.44,88.84
	C170.42,158.98,121.77,218.72,73.12,278.5 M266.12,81.79l-45.49,129.55c-2.09,6.33,1.08,13.75,7.95,15.84
	c1.59,0.52,3.17,0.52,4.76,0.52l157.56,0.54C349.12,281.66,305.78,334,261.88,386.35c-9.51,11.65-19.56,23.28-29.07,34.91
	l45.49-130.08c2.1-6.35-1.05-13.76-7.93-15.86c-1.59-0.54-3.18-0.54-4.78-0.54l-156.5-0.53c43.35-52.87,86.17-105.75,129.54-158.62
	L266.12,81.79z"/>
<path fill="#FFFFFF" d="M73.65,108.21C42.98,146.83,25,195.48,25,247.8c0,41.26,11.11,80.9,31.72,115.28
	c20.64,34.36,49.71,62.92,86.19,82.49c6.36,3.17,13.75,1.05,16.91-5.3c3.19-6.33,1.06-13.75-5.27-16.91
	c-32.27-17.45-58.16-42.85-76.68-73.5C59.91,319.73,49.85,284.3,49.85,247.8c0-46.52,15.87-89.35,43.36-123.73
	c26.97-34.35,65.56-59.74,111.04-70.3c6.87-1.59,11.1-8.46,9.5-14.81c-1.57-6.87-8.45-11.1-14.79-9.53
	C147.14,41.08,104.32,69.62,73.65,108.21"/>
<path fill="#FFFFFF" d="M444.31,133.61c-20.09-33.84-49.18-62.9-85.13-82.49c-5.82-3.17-13.75-1.05-16.91,4.76
	c-3.17,5.82-1.07,13.75,4.76,16.93c31.72,17.45,57.62,42.83,75.62,72.98c17.96,30.13,27.47,65.02,27.47,101.5
	c0,47.06-16.39,90.41-43.88,124.8c-27.49,34.36-66.63,59.74-112.64,69.8c-6.85,1.59-11.07,7.94-9.48,14.81
	c1.55,6.87,7.92,11.09,14.79,9.51c51.28-11.63,95.17-39.66,126.35-78.79c31.22-38.6,49.72-87.79,49.72-140.66
	C475.51,206.58,464.4,167.45,444.31,133.61"/>
<g>
</g>
<g>
</g>
<g>
</g>
<g>
</g>
<g>
</g>
<g>
</g>
<g>
</g>
<g>
</g>
<g>
</g>
<g>
</g>
<g>
</g>
<g>
</g>
<g>
</g>
<g>
</g>
<g>
</g>
</svg>
