<svg height="512" viewBox="0 0 64 64" width="512" xmlns="http://www.w3.org/2000/svg"><path d="m45 27h-8a1 1 0 0 0 -1 1v1a1 1 0 0 1 -1 1h-6a1 1 0 0 1 -1-1v-1a1 1 0 0 0 -1-1h-8a1 1 0 0 0 0 2h7a3 3 0 0 0 3 3h6a3 3 0 0 0 3-3h7a1 1 0 0 0 0-2z" fill="#FFFFFF"/><path d="m54.956 26.1a22.873 22.873 0 0 0 -16.976-21.293 2.994 2.994 0 0 0 -2.98-2.807h-6a2.994 2.994 0 0 0 -2.981 2.815 22.822 22.822 0 0 0 -16.981 21.285 5.005 5.005 0 0 0 -4.038 4.9v2a3 3 0 0 0 3 3h1v7a1 1 0 0 0 1 1h5.744a16.969 16.969 0 0 0 1.224 2.958l-4.056 4.065a1 1 0 0 0 0 1.414l5.65 5.65a1 1 0 0 0 1.414 0l4.065-4.056a16.969 16.969 0 0 0 2.959 1.225v5.744a1 1 0 0 0 1 1h8a1 1 0 0 0 1-1v-5.744a16.682 16.682 0 0 0 2.952-1.232l4.071 4.064a1 1 0 0 0 1.414 0l5.65-5.65a1 1 0 0 0 0-1.414l-4.063-4.071a16.678 16.678 0 0 0 1.232-2.953h5.744a1 1 0 0 0 1-1v-7h1a3 3 0 0 0 3-3v-2a5.005 5.005 0 0 0 -4.044-4.9zm-1.956 15.9h-5.5a1 1 0 0 0 -.968.75 14.651 14.651 0 0 1 -1.61 3.857 1 1 0 0 0 .15 1.22l3.894 3.9-4.237 4.237-3.9-3.894a1 1 0 0 0 -1.221-.15 14.617 14.617 0 0 1 -3.856 1.61 1 1 0 0 0 -.752.97v5.5h-6v-5.5a1 1 0 0 0 -.75-.968 14.979 14.979 0 0 1 -3.872-1.6 1 1 0 0 0 -1.214.153l-3.893 3.884-4.237-4.237 3.884-3.893a1 1 0 0 0 .153-1.214 14.979 14.979 0 0 1 -1.6-3.872 1 1 0 0 0 -.971-.753h-5.5v-6h11.477a10 10 0 1 0 19.046 0h11.477zm-13.6-6a8 8 0 1 1 -14.8 0zm17.6-3a1 1 0 0 1 -1 1h-48a1 1 0 0 1 -1-1v-2a3 3 0 0 1 2-2.816v2.816a1 1 0 0 0 2 0v-4a20.855 20.855 0 0 1 15-20.107v13.107a1 1 0 0 0 2 0v-15a1 1 0 0 1 1-1h6a1 1 0 0 1 1 1v15a1 1 0 0 0 2 0v-13.12a20.963 20.963 0 0 1 15 20.12v4a1 1 0 0 0 2 0v-2.816a3 3 0 0 1 2 2.816z" fill="#FFFFFF"/><path d="m41 18a1 1 0 0 0 1-1v-6a1 1 0 0 0 -2 0v6a1 1 0 0 0 1 1z" fill="#FFFFFF"/><path d="m23 18a1 1 0 0 0 1-1v-6a1 1 0 0 0 -2 0v6a1 1 0 0 0 1 1z" fill="#FFFFFF"/><path d="m50 27h-1a1 1 0 0 0 0 2h1a1 1 0 0 0 0-2z" fill="#FFFFFF"/><path d="m15 27h-1a1 1 0 0 0 0 2h1a1 1 0 0 0 0-2z" fill="#FFFFFF"/><path d="m13 38h2v2h-2z" fill="#FFFFFF"/><path d="m18.272 50.728h2v2h-2z" transform="matrix(.707 -.707 .707 .707 -30.933 28.778)" fill="#FFFFFF"/><path d="m31 56h2v2h-2z" fill="#FFFFFF"/><path d="m43.728 50.728h2v2h-2z" transform="matrix(.707 -.707 .707 .707 -23.477 46.778)" fill="#FFFFFF"/><path d="m49 38h2v2h-2z" fill="#FFFFFF"/></svg>
