<?xml version="1.0" encoding="utf-8"?>
<!-- Generator: Adobe Illustrator 16.0.0, SVG Export Plug-In . SVG Version: 6.00 Build 0)  -->
<!DOCTYPE svg PUBLIC "-//W3C//DTD SVG 1.1//EN" "http://www.w3.org/Graphics/SVG/1.1/DTD/svg11.dtd">
<svg version="1.1" id="Layer_1" xmlns="http://www.w3.org/2000/svg" xmlns:xlink="http://www.w3.org/1999/xlink" x="0px" y="0px"
	 width="500px" height="500px" viewBox="0 0 500 500" enable-background="new 0 0 500 500" xml:space="preserve">
<path fill="#FFFFFF" d="M250.02,11C133.8,11,40,104.78,40,220.98c0,62.99,28,120.4,75.62,160.98l-14,89.62
	c0,5.58,2.79,11.19,6.98,13.98c4.23,4.21,9.81,2.81,15.42-1.37l85.41-57.41c12.6,2.79,26.6,4.23,40.6,4.23
	C366.2,431,460,337.18,460,220.98C460,104.78,366.2,11,250.02,11 M250.02,404.38c-14,0-26.62-1.4-40.6-4.19
	c-4.21-1.42-8.42-1.42-11.21,1.38l-64.41,43.41l9.81-65.81c0-4.19-1.4-9.77-5.58-12.6C93.2,331.59,68,278.39,68,222.4
	c0-100.8,81.2-182,182.02-182c100.78,0,181.98,81.2,181.98,182C432,323.18,350.8,404.38,250.02,404.38"/>
<path fill="#FFFFFF" d="M250.02,103.79L250.02,103.79c-7.74,0-14,6.26-14,14v165.89c0,7.68,6.05,14.19,13.75,14.32
	c8.54,0.13,14.23-6.96,14.23-14.02V117.79C264,110.05,257.74,103.79,250.02,103.79"/>
<path fill="#FFFFFF" d="M240.21,314.78c-5.58,4.19-5.58,14,0,19.6c5.6,5.58,14,7.02,19.58,0c5.63-5.6,5.63-14,0-19.6
	C254.21,309.18,245.81,309.18,240.21,314.78"/>
<g>
</g>
<g>
</g>
<g>
</g>
<g>
</g>
<g>
</g>
<g>
</g>
<g>
</g>
<g>
</g>
<g>
</g>
<g>
</g>
<g>
</g>
<g>
</g>
<g>
</g>
<g>
</g>
<g>
</g>
</svg>
