<?xml version="1.0" encoding="utf-8"?>
<!-- Generator: Adobe Illustrator 16.0.0, SVG Export Plug-In . SVG Version: 6.00 Build 0)  -->
<!DOCTYPE svg PUBLIC "-//W3C//DTD SVG 1.1//EN" "http://www.w3.org/Graphics/SVG/1.1/DTD/svg11.dtd">
<svg version="1.1" id="Layer_1" xmlns="http://www.w3.org/2000/svg" xmlns:xlink="http://www.w3.org/1999/xlink" x="0px" y="0px"
	 width="500px" height="500px" viewBox="0 0 500 500" enable-background="new 0 0 500 500" xml:space="preserve">
<path fill="#FFFFFF" d="M349.5,109.35c24.61,0,44.67-20.06,44.67-44.68S374.11,20,349.5,20c-24.64,0-44.67,20.04-44.67,44.67
	S324.86,109.35,349.5,109.35 M349.5,33.18c17.36,0,31.47,14.13,31.47,31.49s-14.11,31.49-31.47,31.49s-31.49-14.13-31.49-31.49
	S332.14,33.18,349.5,33.18"/>
<path fill="none" stroke="#FFFFFF" stroke-width="0.1" stroke-miterlimit="10" d="M349.5,109.35c24.61,0,44.67-20.06,44.67-44.68
	S374.11,20,349.5,20c-24.64,0-44.67,20.04-44.67,44.67S324.86,109.35,349.5,109.35z M349.5,33.18c17.36,0,31.47,14.13,31.47,31.49
	s-14.11,31.49-31.47,31.49s-31.49-14.13-31.49-31.49S332.14,33.18,349.5,33.18z"/>
<path fill="#FFFFFF" d="M150.49,109.35c24.63,0,44.67-20.04,44.67-44.68c0-17.66-10.43-33.69-26.62-40.86
	c-3.34-1.47-7.23,0.03-8.7,3.35c-1.47,3.34,0.03,7.23,3.37,8.7c11.39,5.04,18.74,16.35,18.74,28.81c0,17.36-14.11,31.49-31.47,31.49
	S119,82.03,119,64.67c0-12.46,7.37-23.77,18.79-28.81c3.32-1.47,4.8-5.36,3.34-8.7c-1.47-3.32-5.36-4.82-8.68-3.35
	c-16.17,7.16-26.63,23.19-26.63,40.86C105.82,89.31,125.86,109.35,150.49,109.35"/>
<path fill="none" stroke="#FFFFFF" stroke-width="0.1" stroke-miterlimit="10" d="M150.49,109.35c24.63,0,44.67-20.04,44.67-44.68
	c0-17.66-10.43-33.69-26.62-40.86c-3.34-1.47-7.23,0.03-8.7,3.35c-1.47,3.34,0.03,7.23,3.37,8.7c11.39,5.04,18.74,16.35,18.74,28.81
	c0,17.36-14.11,31.49-31.47,31.49S119,82.03,119,64.67c0-12.46,7.37-23.77,18.79-28.81c3.32-1.47,4.8-5.36,3.34-8.7
	c-1.47-3.32-5.36-4.82-8.68-3.35c-16.17,7.16-26.63,23.19-26.63,40.86C105.82,89.31,125.86,109.35,150.49,109.35z"/>
<path fill="#FFFFFF" d="M418.07,140.67c-10.47-9.81-24.1-14.95-37.86-14.95h-61.44c-13.94,0-27.54,5.29-37.87,14.95
	c-7.64,7.16-18.61,18.81-28.72,34.52c-1.58-0.08-2.83-0.07-4.35,0.02c-10.11-15.71-21.1-27.36-28.75-34.54
	c-10.48-9.81-24.14-14.95-37.87-14.95h-61.44c-13.94,0-27.54,5.29-37.84,14.95C60.73,160.51,25.19,203.83,25,271.18
	c-0.07,14.13,11.19,25.96,25.01,26.33c14.58,0.4,26.5-11.23,26.5-25.74c0-23.7,6.04-45.63,17.93-65.35L78.1,356.15
	c-0.34,2.98,0.64,5.97,2.63,8.21c2.01,2.24,4.89,3.52,7.89,3.52h8.46v75.33c0,12.52,10.18,22.7,22.72,22.7h14.58
	c6.29,0,11.98-2.56,16.11-6.73c4.13,4.16,9.83,6.73,16.13,6.73h14.58c12.52,0,22.7-10.18,22.7-22.7v-75.33h3.44v79.07v0.15
	c0.13,10.4,8.63,18.81,19.06,18.81h11.28c4.75,0,9.12-1.75,12.47-4.65c3.34,2.9,7.69,4.65,12.46,4.65h11.29
	c10.5,0,19.06-8.56,19.06-19.05V314.89c1.11,1.89,2.12,3.83,3.1,5.78v122.54c0,12.51,10.2,22.7,22.72,22.7h14.56
	c6.3,0,12.02-2.56,16.15-6.73c4.11,4.16,9.81,6.73,16.11,6.73h14.6c12.52,0,22.7-10.2,22.7-22.7V289.52c0-3.64-2.95-6.59-6.59-6.59
	s-6.59,2.95-6.59,6.59v153.69c0,5.24-4.26,9.52-9.52,9.52h-14.6c-5.26,0-9.52-4.28-9.52-9.52l-0.02-0.02v-134.2
	c0-3.64-2.95-6.59-6.57-6.59c-3.64,0-6.59,2.95-6.59,6.59v14.13c-6.42-21.58-18.09-41.11-33.66-57.24v-83.1
	c0-6.07-7.52-8.92-11.53-4.37c-5.07,5.75-9.67,11.85-13.74,18.27c-3.69-7.96-10.13-14.43-18.22-18.14
	c8.66-12.68,17.7-22.18,24.17-28.25c9.07-8.5,19.33-11.38,30.96-11.38l14.9,17.67c7.16,8.51,20.24,8.5,27.39,0l14.9-17.67
	c11.66,0,21.9,2.88,30.98,11.38c19.6,18.37,52.56,58.54,52.74,120.92c0.02,7.06-5.44,12.95-12.22,13.13
	c-7.15,0.19-12.93-5.53-12.93-12.59c0-36.34-13.01-67.98-35.38-93.35c-4.01-4.55-11.55-1.7-11.55,4.37v75.97
	c0,3.64,2.95,6.61,6.59,6.61s6.59-2.97,6.59-6.61v-56.48c13.65,20.8,20.56,44.13,20.56,69.5c0,14.55,11.95,26.18,26.48,25.75
	c13.86-0.37,25.08-12.2,25.05-26.33C474.79,203.83,439.24,160.51,418.07,140.67 M255.72,262.13l-3.93,4.65
	c-0.84,1.03-2.44,1.03-3.29,0l-3.93-4.65H255.72z M211.47,251.53l-4.94-45.09c2.68,4.45,5.06,9,7.15,13.69
	c3.03,14.43,14.44,25.82,28.92,28.81c-3.64,0-7.01,0.02-9.88,0.02C224.87,248.95,219.48,248.68,211.47,251.53 M226.09,213.57
	c-0.64-13.86,10.47-25.25,24.07-25.25c13.16,0,24.1,10.69,24.1,24.1c0,13.25-10.79,24.09-24.1,24.09
	C237.31,236.51,226.71,226.4,226.09,213.57 M161.83,138.92l-7.72,9.17c-1.89,2.26-5.34,2.26-7.25,0l-7.72-9.17H161.83z
	 M201.36,354.7c-5.85,0-10.64,4.77-10.64,10.64v77.87c0,5.24-4.25,9.52-9.52,9.52h-14.58c-5.26,0-9.54-4.28-9.54-9.52v-80.64
	c0-3.64-2.93-6.59-6.59-6.59c-3.64,0-6.59,2.95-6.59,6.59v80.64c0,5.24-4.28,9.52-9.52,9.52h-14.61c-5.24,0-9.51-4.28-9.51-9.52
	v-78.8c0-5.34-4.37-9.71-9.71-9.71h-9.03l18.69-171.22c0.69-6.37-7.26-9.88-11.5-5.07c-22.37,25.35-35.38,56.99-35.38,93.36
	c0,7.08-5.83,12.76-12.95,12.57c-6.74-0.19-12.24-6.07-12.22-13.13c0.22-62.38,33.14-102.55,52.77-120.92
	c9.19-8.61,19.52-11.38,30.95-11.38l14.9,17.67c7.16,8.5,20.26,8.5,27.41,0l14.88-17.67c11.6,0,21.9,2.85,30.98,11.38
	c6.49,6.08,15.56,15.64,24.25,28.37c-8.19,3.84-14.56,10.52-18.1,18.32c-3.98-6.27-8.6-12.54-13.94-18.57
	c-4.23-4.8-12.19-1.28-11.48,5.07l8.16,74.97c-16.25,12.78-34.97,39.64-42.64,68.55c-3.54,13.33,6.44,26.36,20.19,26.36
	c9.98,0,18.81-6.67,21.44-16.27c1.87-6.69,4.38-12.93,7.55-18.88l1.85,16.92v19.55H201.36z M291.32,290.19
	c-4.01-4.53-11.55-1.69-11.55,4.37v152.31c0,3.24-2.61,5.87-5.87,5.87h-11.29c-3.22,0-5.87-2.63-5.87-5.87c0-0.1-0.02-0.19-0.02-0.3
	c0.02-0.15,0.02-0.3,0.02-0.46v-99.8c0-3.64-2.93-6.59-6.59-6.59c-3.64,0-6.61,2.95-6.61,6.59v99.8c0,0.08,0.03,0.18,0.03,0.27
	c0,0.19-0.03,0.32-0.03,0.49c0,3.24-2.63,5.87-5.87,5.87h-11.28c-3.25,0-5.88-2.65-5.88-5.87V294.54c0-6.05-7.53-8.88-11.53-4.35
	c-11.07,12.52-19.32,27.34-23.77,43.4c-1.06,3.88-4.67,6.59-8.73,6.59c-5.09,0-8.78-4.84-7.47-9.79
	c7.64-28.69,23.83-48.39,36.07-59.85c5.85-5.5,13.06-8.36,22.27-8.39l11.02,13.11c6.15,7.28,17.36,7.28,23.5,0l11.06-13.13
	c11.85,0.07,18.24,4.32,25.08,11.13c15.17,15.15,26.9,34.28,32.87,55.79c1.55,5.6-2.7,11.14-8.56,11.14c-3.24,0-6.1-2.26-6.98-5.48
	C310.9,317.87,302.37,302.7,291.32,290.19 M333.35,452.73h-14.56c-5.26,0-9.54-4.28-9.54-9.52v-94.64
	c10.87,9.17,28.17,4.7,33.66-9.22v103.86C342.89,448.47,338.63,452.73,333.35,452.73 M296.07,202.26v52.62
	c-10.92-6.3-19.55-5.93-28.96-5.93c-2.73,0-5.97-0.02-9.37-0.02c14.83-3.08,26.48-15.02,29.13-30.02
	C289.5,213.18,292.56,207.6,296.07,202.26 M353.11,148.08c-1.89,2.26-5.36,2.26-7.23,0l-7.74-9.17h22.7L353.11,148.08z"/>
<path fill="none" stroke="#FFFFFF" stroke-width="0.1" stroke-miterlimit="10" d="M418.07,140.67
	c-10.47-9.81-24.1-14.95-37.86-14.95h-61.44c-13.94,0-27.54,5.29-37.87,14.95c-7.64,7.16-18.61,18.81-28.72,34.52
	c-1.58-0.08-2.83-0.07-4.35,0.02c-10.11-15.71-21.1-27.36-28.75-34.54c-10.48-9.81-24.14-14.95-37.87-14.95h-61.44
	c-13.94,0-27.54,5.29-37.84,14.95C60.73,160.51,25.19,203.83,25,271.18c-0.07,14.13,11.19,25.96,25.01,26.33
	c14.58,0.4,26.5-11.23,26.5-25.74c0-23.7,6.04-45.63,17.93-65.35L78.1,356.15c-0.34,2.98,0.64,5.97,2.63,8.21
	c2.01,2.24,4.89,3.52,7.89,3.52h8.46v75.33c0,12.52,10.18,22.7,22.72,22.7h14.58c6.29,0,11.98-2.56,16.11-6.73
	c4.13,4.16,9.83,6.73,16.13,6.73h14.58c12.52,0,22.7-10.18,22.7-22.7v-75.33h3.44v79.07v0.15c0.13,10.4,8.63,18.81,19.06,18.81
	h11.28c4.75,0,9.12-1.75,12.47-4.65c3.34,2.9,7.69,4.65,12.46,4.65h11.29c10.5,0,19.06-8.56,19.06-19.05V314.89
	c1.11,1.89,2.12,3.83,3.1,5.78v122.54c0,12.51,10.2,22.7,22.72,22.7h14.56c6.3,0,12.02-2.56,16.15-6.73
	c4.11,4.16,9.81,6.73,16.11,6.73h14.6c12.52,0,22.7-10.2,22.7-22.7V289.52c0-3.64-2.95-6.59-6.59-6.59s-6.59,2.95-6.59,6.59v153.69
	c0,5.24-4.26,9.52-9.52,9.52h-14.6c-5.26,0-9.52-4.28-9.52-9.52l-0.02-0.02v-134.2c0-3.64-2.95-6.59-6.57-6.59
	c-3.64,0-6.59,2.95-6.59,6.59v14.13c-6.42-21.58-18.09-41.11-33.66-57.24v-83.1c0-6.07-7.52-8.92-11.53-4.37
	c-5.07,5.75-9.67,11.85-13.74,18.27c-3.69-7.96-10.13-14.43-18.22-18.14c8.66-12.68,17.7-22.18,24.17-28.25
	c9.07-8.5,19.33-11.38,30.96-11.38l14.9,17.67c7.16,8.51,20.24,8.5,27.39,0l14.9-17.67c11.66,0,21.9,2.88,30.98,11.38
	c19.6,18.37,52.56,58.54,52.74,120.92c0.02,7.06-5.44,12.95-12.22,13.13c-7.15,0.19-12.93-5.53-12.93-12.59
	c0-36.34-13.01-67.98-35.38-93.35c-4.01-4.55-11.55-1.7-11.55,4.37v75.97c0,3.64,2.95,6.61,6.59,6.61s6.59-2.97,6.59-6.61v-56.48
	c13.65,20.8,20.56,44.13,20.56,69.5c0,14.55,11.95,26.18,26.48,25.75c13.86-0.37,25.08-12.2,25.05-26.33
	C474.79,203.83,439.24,160.51,418.07,140.67z M255.72,262.13l-3.93,4.65c-0.84,1.03-2.44,1.03-3.29,0l-3.93-4.65H255.72z
	 M211.47,251.53l-4.94-45.09c2.68,4.45,5.06,9,7.15,13.69c3.03,14.43,14.44,25.82,28.92,28.81c-3.64,0-7.01,0.02-9.88,0.02
	C224.87,248.95,219.48,248.68,211.47,251.53z M226.09,213.57c-0.64-13.86,10.47-25.25,24.07-25.25c13.16,0,24.1,10.69,24.1,24.1
	c0,13.25-10.79,24.09-24.1,24.09C237.31,236.51,226.71,226.4,226.09,213.57z M161.83,138.92l-7.72,9.17c-1.89,2.26-5.34,2.26-7.25,0
	l-7.72-9.17H161.83z M201.36,354.7c-5.85,0-10.64,4.77-10.64,10.64v77.87c0,5.24-4.25,9.52-9.52,9.52h-14.58
	c-5.26,0-9.54-4.28-9.54-9.52v-80.64c0-3.64-2.93-6.59-6.59-6.59c-3.64,0-6.59,2.95-6.59,6.59v80.64c0,5.24-4.28,9.52-9.52,9.52
	h-14.61c-5.24,0-9.51-4.28-9.51-9.52v-78.8c0-5.34-4.37-9.71-9.71-9.71h-9.03l18.69-171.22c0.69-6.37-7.26-9.88-11.5-5.07
	c-22.37,25.35-35.38,56.99-35.38,93.36c0,7.08-5.83,12.76-12.95,12.57c-6.74-0.19-12.24-6.07-12.22-13.13
	c0.22-62.38,33.14-102.55,52.77-120.92c9.19-8.61,19.52-11.38,30.95-11.38l14.9,17.67c7.16,8.5,20.26,8.5,27.41,0l14.88-17.67
	c11.6,0,21.9,2.85,30.98,11.38c6.49,6.08,15.56,15.64,24.25,28.37c-8.19,3.84-14.56,10.52-18.1,18.32
	c-3.98-6.27-8.6-12.54-13.94-18.57c-4.23-4.8-12.19-1.28-11.48,5.07l8.16,74.97c-16.25,12.78-34.97,39.64-42.64,68.55
	c-3.54,13.33,6.44,26.36,20.19,26.36c9.98,0,18.81-6.67,21.44-16.27c1.87-6.69,4.38-12.93,7.55-18.88l1.85,16.92v19.55H201.36z
	 M291.32,290.19c-4.01-4.53-11.55-1.69-11.55,4.37v152.31c0,3.24-2.61,5.87-5.87,5.87h-11.29c-3.22,0-5.87-2.63-5.87-5.87
	c0-0.1-0.02-0.19-0.02-0.3c0.02-0.15,0.02-0.3,0.02-0.46v-99.8c0-3.64-2.93-6.59-6.59-6.59c-3.64,0-6.61,2.95-6.61,6.59v99.8
	c0,0.08,0.03,0.18,0.03,0.27c0,0.19-0.03,0.32-0.03,0.49c0,3.24-2.63,5.87-5.87,5.87h-11.28c-3.25,0-5.88-2.65-5.88-5.87V294.54
	c0-6.05-7.53-8.88-11.53-4.35c-11.07,12.52-19.32,27.34-23.77,43.4c-1.06,3.88-4.67,6.59-8.73,6.59c-5.09,0-8.78-4.84-7.47-9.79
	c7.64-28.69,23.83-48.39,36.07-59.85c5.85-5.5,13.06-8.36,22.27-8.39l11.02,13.11c6.15,7.28,17.36,7.28,23.5,0l11.06-13.13
	c11.85,0.07,18.24,4.32,25.08,11.13c15.17,15.15,26.9,34.28,32.87,55.79c1.55,5.6-2.7,11.14-8.56,11.14c-3.24,0-6.1-2.26-6.98-5.48
	C310.9,317.87,302.37,302.7,291.32,290.19z M333.35,452.73h-14.56c-5.26,0-9.54-4.28-9.54-9.52v-94.64
	c10.87,9.17,28.17,4.7,33.66-9.22v103.86C342.89,448.47,338.63,452.73,333.35,452.73z M296.07,202.26v52.62
	c-10.92-6.3-19.55-5.93-28.96-5.93c-2.73,0-5.97-0.02-9.37-0.02c14.83-3.08,26.48-15.02,29.13-30.02
	C289.5,213.18,292.56,207.6,296.07,202.26z M353.11,148.08c-1.89,2.26-5.36,2.26-7.23,0l-7.74-9.17h22.7L353.11,148.08z"/>
<g>
</g>
<g>
</g>
<g>
</g>
<g>
</g>
<g>
</g>
<g>
</g>
<g>
</g>
<g>
</g>
<g>
</g>
<g>
</g>
<g>
</g>
<g>
</g>
<g>
</g>
<g>
</g>
<g>
</g>
</svg>
