<?xml version="1.0" encoding="utf-8"?>
<!-- Generator: Adobe Illustrator 16.0.0, SVG Export Plug-In . SVG Version: 6.00 Build 0)  -->
<!DOCTYPE svg PUBLIC "-//W3C//DTD SVG 1.1//EN" "http://www.w3.org/Graphics/SVG/1.1/DTD/svg11.dtd">
<svg version="1.1" id="Layer_1" xmlns="http://www.w3.org/2000/svg" xmlns:xlink="http://www.w3.org/1999/xlink" x="0px" y="0px"
	 width="500px" height="500px" viewBox="0 0 500 500" enable-background="new 0 0 500 500" xml:space="preserve">
<g>
	<defs>
		<path id="SVGID_1_" d="M174.77,330.18h69.75v65.58h-69.75V330.18z M257.5,330.18h69.73v65.58H257.5V330.18z M174.77,252.39h69.75
			v65.55h-69.75V252.39z M257.5,252.39h69.73v65.55H257.5V252.39z M92.76,246.35v216.83h316.5V246.35L251.02,97.54L92.76,246.35z"/>
	</defs>
	<clipPath id="SVGID_2_">
		<use xlink:href="#SVGID_1_"  overflow="visible"/>
	</clipPath>
	
		<linearGradient id="SVGID_3_" gradientUnits="userSpaceOnUse" x1="40.7788" y1="596.4551" x2="61.1982" y2="596.4551" gradientTransform="matrix(15.5 0 0 -15.5 -539.3039 9525.3818)">
		<stop  offset="0" style="stop-color:#008FA2"/>
		<stop  offset="1" style="stop-color:#005574"/>
	</linearGradient>
	<rect x="92.76" y="97.54" clip-path="url(#SVGID_2_)" fill="url(#SVGID_3_)" width="316.5" height="365.64"/>
</g>
<g>
	<defs>
		<polygon id="SVGID_4_" points="16,250.99 45.61,278.83 251.02,85.68 456.42,278.83 486,250.99 251.02,30 		"/>
	</defs>
	<clipPath id="SVGID_5_">
		<use xlink:href="#SVGID_4_"  overflow="visible"/>
	</clipPath>
	
		<linearGradient id="SVGID_6_" gradientUnits="userSpaceOnUse" x1="40.9463" y1="603.1426" x2="61.3638" y2="603.1426" gradientTransform="matrix(23.0197 0 0 -23.0197 -926.5819 14038.6133)">
		<stop  offset="0" style="stop-color:#008FA2"/>
		<stop  offset="1" style="stop-color:#005574"/>
	</linearGradient>
	<rect x="16" y="30" clip-path="url(#SVGID_5_)" fill="url(#SVGID_6_)" width="470" height="248.83"/>
</g>
<g>
</g>
<g>
</g>
<g>
</g>
<g>
</g>
<g>
</g>
<g>
</g>
<g>
</g>
<g>
</g>
<g>
</g>
<g>
</g>
<g>
</g>
<g>
</g>
<g>
</g>
<g>
</g>
<g>
</g>
</svg>
