<?xml version="1.0" encoding="utf-8"?>
<!-- Generator: Adobe Illustrator 23.0.0, SVG Export Plug-In . SVG Version: 6.00 Build 0)  -->
<svg version="1.1" id="Layer_1" xmlns="http://www.w3.org/2000/svg" xmlns:xlink="http://www.w3.org/1999/xlink" x="0px" y="0px"
	 viewBox="0 0 512 512" style="enable-background:new 0 0 512 512;" xml:space="preserve">
<style type="text/css">
	.st0{fill-rule:evenodd;clip-rule:evenodd;fill:#EA5D4F;}
	.st1{fill-rule:evenodd;clip-rule:evenodd;fill:#FFFFFF;}
</style>
<rect x="38" y="38" class="st0" width="436" height="436"/>
<g>
	<path class="st1" d="M361.8,231.8H194.1l161-46.6c1.3-0.4,2.3-1.2,2.9-2.3c0.6-1.1,0.8-2.5,0.4-3.7l-8.4-29.1
		c-3.4-11.6-14.2-19.7-26.3-19.7c-2.6,0-5.1,0.4-7.6,1.1L165,175.1c-7,2-12.8,6.7-16.3,13.1c-3.5,6.4-4.4,13.8-2.3,20.8l8.2,28.4
		v117.1c0,15.1,12.3,27.3,27.3,27.3h59c2.7,0,4.9-2.2,4.9-4.9s-2.2-4.9-4.9-4.9h-59c-9.7,0-17.5-7.9-17.5-17.5v-66.9h25.2h0h0h38.5
		h0h0h38.5h0h0h38.5h0h0h51.7v66.9c0,9.7-7.9,17.5-17.5,17.5h-59c-2.7,0-4.9,2.2-4.9,4.9s2.2,4.9,4.9,4.9h59
		c15.1,0,27.3-12.3,27.3-27.3V236.7C366.7,234,364.5,231.8,361.8,231.8z M275.1,277.7l20.9-36.2h27.2l-20.9,36.2H275.1z
		 M236.6,277.7l20.9-36.2h27.2l-20.9,36.2H236.6z M198.1,277.7l20.9-36.2h27.2l-20.9,36.2H198.1z M216.4,214.1l-35-33.6l26.2-7.6
		c0.2,0.3,0.4,0.5,0.6,0.8l35,33.6l-26.2,7.6C216.9,214.6,216.7,214.4,216.4,214.1z M282.3,152.3l35,33.6l-26.2,7.6
		c-0.2-0.3-0.4-0.5-0.6-0.8l-35-33.6l26.2-7.6C281.8,151.8,282,152.1,282.3,152.3z M245.3,163l35,33.6l-26.2,7.6
		c-0.2-0.3-0.4-0.5-0.6-0.8l-35-33.6l26.2-7.6C244.8,162.5,245,162.8,245.3,163z M319,140.7c1.6-0.5,3.2-0.7,4.8-0.7
		c7.8,0,14.7,5.2,16.9,12.6l7.1,24.4l-19.7,5.7c-0.2-0.3-0.4-0.5-0.6-0.8l-35-33.6L319,140.7z M157.3,192.9c2.3-4.1,6-7.1,10.4-8.4
		l2.9-0.8c0.2,0.3,0.4,0.5,0.6,0.8l35,33.6l-43.4,12.6l-7.1-24.4C154.5,201.8,155.1,197,157.3,192.9z M164.4,241.6h43.2l-20.9,36.2
		h-22.4V241.6z M313.6,277.7l20.9-36.2h22.4v36.2H313.6z"/>
	<path class="st1" d="M294.6,329.3c0-1.8-0.9-3.4-2.5-4.3L249,300.1c-1.5-0.9-3.4-0.9-4.9,0c-1.5,0.9-2.5,2.5-2.5,4.3v49.8
		c0,1.8,0.9,3.4,2.5,4.3c0.8,0.4,1.6,0.7,2.5,0.7c0.8,0,1.7-0.2,2.5-0.7l43.2-24.9C293.7,332.6,294.6,331,294.6,329.3z M251.5,345.7
		v-32.8l28.4,16.4L251.5,345.7z"/>
	<path class="st1" d="M260.7,372c-2.7,0-4.9,2.2-4.9,4.9s2.2,4.9,4.9,4.9c2.7,0,4.9-2.2,4.9-4.9S263.4,372,260.7,372z"/>
</g>
</svg>
