<?xml version="1.0" encoding="utf-8"?>
<!-- Generator: Adobe Illustrator 23.0.0, SVG Export Plug-In . SVG Version: 6.00 Build 0)  -->
<svg version="1.1" id="Layer_1" xmlns="http://www.w3.org/2000/svg" xmlns:xlink="http://www.w3.org/1999/xlink" x="0px" y="0px"
	 viewBox="0 0 512 512" style="enable-background:new 0 0 512 512;" xml:space="preserve">
<style type="text/css">
	.st0{fill:#FFFFFF;}
	.st1{fill:#F08720;}
	.st2{enable-background:new    ;}
	.st3{font-family:'Helvetica';}
	.st4{font-size:42px;}
</style>
<g>
	<g>
		<path class="st0" d="M329.2,154.7c-5.5-8.5-13.6-16.1-23.3-21.9c-1.1-0.7-2.6-0.3-3.3,0.8c-0.7,1.1-0.3,2.6,0.8,3.3
			c18.9,11.3,29.7,28.3,29.7,46.7c0,15.6-7.8,30.3-22.1,41.4c-14.4,11.3-33.7,17.6-54.2,17.7c-0.4,0-0.8,0.1-1.1,0.3l-34.6,18.1
			l5.1-20.5c0.3-1.2-0.4-2.4-1.6-2.9c-27.8-9.5-45.8-30.7-45.8-54.1c0-32.6,34.6-59.2,77.1-59.2c13.1,0,26.2,2.6,37.6,7.5
			c1.2,0.5,2.6-0.1,3.2-1.3c0.5-1.2-0.1-2.6-1.3-3.2c-12-5.1-25.7-7.9-39.5-7.9c-21.7,0-42.3,6.6-57.7,18.5
			c-15.6,12.1-24.2,28.2-24.2,45.4c0,24.8,18.4,47.3,47,57.9l-5.9,23.6c-0.5,2,1.6,3.7,3.5,2.7l38.8-20.3
			c21.4-0.3,41.4-6.9,56.5-18.7c15.4-12.1,23.9-28.1,23.9-45.2C338,173.5,335.1,163.8,329.2,154.7z"/>
		<path class="st0" d="M292,147.9h-84.6c-1.3,0-2.4,1.1-2.4,2.4v59c0,5.5,4.5,10.1,10.1,10.1h84.6c5.5,0,10.1-4.5,10.1-10.1v-46.2
			c0-1.3-1.1-2.4-2.4-2.4h-13v-10.4C294.4,149,293.3,147.9,292,147.9z M209.8,152.7h79.8v31.1h-79.8V152.7z M215.1,214.6
			c-2.9,0-5.3-2.4-5.3-5.3v-20.7h79.8v20.7c0,1.8,0.5,3.7,1.5,5.3H215.1z M305,165.5v43.7c0,2.9-2.4,5.3-5.3,5.3s-5.3-2.4-5.3-5.3
			v-43.7H305L305,165.5z"/>
		<path class="st0" d="M227.9,157.9c-1.3,0-2.4,1.1-2.4,2.4v8.5c-1.8-2.9-3.9-6.4-5.8-9.7c-0.6-1-1.6-1.4-2.7-1.1
			c-1.1,0.3-1.8,1.2-1.8,2.3v15.4c0,1.3,1.1,2.4,2.4,2.4s2.4-1.1,2.4-2.4v-6.6c0.1,0.1,0.2,0.3,0.2,0.4c1.4,2.3,2.6,4.2,3.5,5.5
			c1.2,1.7,2.3,3.4,4,3.4c0.2,0,0.5-0.1,0.7-0.1c0.9-0.3,1.9-1.1,1.9-2.5v-15.4C230.3,159,229.2,157.9,227.9,157.9z"/>
		<path class="st0" d="M243.3,162.7c1.3,0,2.4-1.1,2.4-2.4s-1.1-2.4-2.4-2.4h-7.7c-1.3,0-2.4,1.1-2.4,2.4v15.4
			c0,1.3,1.1,2.4,2.4,2.4h7.7c1.3,0,2.4-1.1,2.4-2.4s-1.1-2.4-2.4-2.4H238v-2.9h2.7c1.3,0,2.4-1.1,2.4-2.4c0-1.3-1.1-2.4-2.4-2.4
			H238v-2.9H243.3L243.3,162.7z"/>
		<path class="st0" d="M267.1,158c-1.3-0.4-2.6,0.3-3.1,1.5l-2.5,7.5l-0.6-2.2c-0.3-1.1-1.2-1.8-2.3-1.8s-2.1,0.8-2.3,1.8l-0.6,2.2
			l-2.5-7.5c-0.4-1.3-1.8-1.9-3.1-1.5c-1.3,0.4-1.9,1.8-1.5,3.1l5.1,15.4c0.4,1,1.3,1.7,2.4,1.6c1.1-0.1,2-0.8,2.2-1.8l0.3-0.9
			l0.3,0.9c0.3,1,1.2,1.8,2.2,1.8c0.1,0,0.1,0,0.1,0c1,0,1.9-0.7,2.3-1.6l5.1-15.4C269.1,159.8,268.4,158.5,267.1,158z"/>
		<path class="st0" d="M276.6,162.7h5.1c1.3,0,2.4-1.1,2.4-2.4s-1.1-2.4-2.4-2.4h-5.1c-2.7,0-5,2.2-5,5v2.5c0,2.7,2.2,5,5,5h2.5
			c0.1,0,0.2,0.1,0.2,0.2v2.5c0,0.1-0.1,0.2-0.2,0.2H274c-1.3,0-2.4,1.1-2.4,2.4s1.1,2.4,2.4,2.4h5.1c2.7,0,5-2.2,5-5v-2.5
			c0-2.7-2.2-5-5-5h-2.5c-0.1,0-0.2-0.1-0.2-0.2v-2.5C276.5,162.8,276.5,162.7,276.6,162.7z"/>
		<path class="st0" d="M233,194.1h-12.8c-1.3,0-2.4,1.1-2.4,2.4c0,1.3,1.1,2.4,2.4,2.4H233c1.3,0,2.4-1.1,2.4-2.4
			C235.4,195.1,234.4,194.1,233,194.1z"/>
		<path class="st0" d="M279.2,194.1h-35.9c-1.3,0-2.4,1.1-2.4,2.4c0,1.3,1.1,2.4,2.4,2.4h35.9c1.3,0,2.4-1.1,2.4-2.4
			C281.6,195.1,280.5,194.1,279.2,194.1z"/>
		<path class="st0" d="M227.9,204.3h-7.7c-1.3,0-2.4,1.1-2.4,2.4c0,1.3,1.1,2.4,2.4,2.4h7.7c1.3,0,2.4-1.1,2.4-2.4
			C230.3,205.4,229.2,204.3,227.9,204.3z"/>
		<path class="st0" d="M279.2,204.3h-41c-1.3,0-2.4,1.1-2.4,2.4c0,1.3,1.1,2.4,2.4,2.4h41c1.3,0,2.4-1.1,2.4-2.4
			C281.6,205.4,280.5,204.3,279.2,204.3z"/>
	</g>
</g>
<g>
	<g>
		<path class="st1" d="M256,316.9c-72.2,0-130.9-58.7-130.9-130.9S183.8,55.1,256,55.1S386.9,113.8,386.9,186S328.2,316.9,256,316.9
			z M256,67.1c-65.6,0-118.9,53.4-118.9,118.9S190.4,304.9,256,304.9S374.9,251.5,374.9,186S321.6,67.1,256,67.1z"/>
	</g>
</g>
<text transform="matrix(1 0 0 1 58.0771 394.9962)" class="st2"><tspan x="0" y="0" class="st1 st3 st4">Outras informações</tspan><tspan x="91.2" y="37" class="st0 st3 st4">relevantes</tspan></text>
</svg>
