<?xml version="1.0" encoding="utf-8"?>
<!-- Generator: Adobe Illustrator 23.0.0, SVG Export Plug-In . SVG Version: 6.00 Build 0)  -->
<svg version="1.1" id="Layer_1" xmlns="http://www.w3.org/2000/svg" xmlns:xlink="http://www.w3.org/1999/xlink" x="0px" y="0px"
	 viewBox="0 0 512 512" style="enable-background:new 0 0 512 512;" xml:space="preserve">
<style type="text/css">
	.st0{fill:#FFFFFF;}
	.st1{fill:#F08720;}
	.st2{font-family:'Helvetica';}
	.st3{font-size:42px;}
</style>
<g>
	<path class="st0" d="M309.3,215.6c0-3.8-3.1-6.8-6.8-6.8s-6.8,3.1-6.8,6.8c0,3.8,3.1,6.8,6.8,6.8S309.3,219.4,309.3,215.6
		L309.3,215.6z M299.9,215.6c0-1.4,1.2-2.6,2.6-2.6s2.6,1.2,2.6,2.6s-1.2,2.6-2.6,2.6S299.9,217.1,299.9,215.6L299.9,215.6z
		 M266.9,215.6c0-3.8-3.1-6.8-6.8-6.8c-3.8,0-6.8,3.1-6.8,6.8c0,3.8,3.1,6.8,6.8,6.8C263.8,222.5,266.9,219.4,266.9,215.6
		L266.9,215.6z M257.5,215.6c0-1.4,1.2-2.6,2.6-2.6s2.6,1.2,2.6,2.6s-1.2,2.6-2.6,2.6S257.5,217.1,257.5,215.6L257.5,215.6z
		 M320.7,255.9l-8.3-4.9c10.2-9,16.1-22,16-35.7c-0.1-12.3-4.9-24-13.7-32.8c-8.8-8.8-20.4-13.8-32.7-14c-1.4,0-2.8,0-4.2,0.1
		c0.1-1.2,0.1-2.4,0.1-3.6c0-12.7-5-24.6-14-33.6c-9.1-8.9-21-13.7-33.8-13.6c-8.5,0.1-16.8,2.6-24.1,7.1c-1,0.6-1.3,1.9-0.7,2.9
		c0.6,1,1.9,1.3,2.9,0.7c6.6-4.1,14.2-6.3,21.9-6.4c11.6-0.2,22.5,4.2,30.7,12.3c8.2,8.1,12.8,19,12.8,30.5c0,1.9-0.1,3.7-0.4,5.6v0
		c-1.2,9.2-5.3,17.7-11.9,24.5c-7.9,8.1-18.5,12.6-29.7,12.8l-36.3,0l6.7-4c1.1-0.7,1.9-1.8,2-3.1c0.1-1.3-0.4-2.6-1.4-3.4
		c-9.4-8.2-14.8-20.1-14.7-32.6c0.1-11.6,4.8-22.5,13.2-30.6c0.8-0.8,0.9-2.2,0.1-3s-2.2-0.9-3-0.1c-9.3,8.9-14.4,20.9-14.5,33.6
		c-0.1,13.6,5.7,26.6,16,35.7l-8.3,4.9c-1.4,0.9-2.1,2.5-1.7,4.1c0.4,1.6,1.9,2.7,3.6,2.7h0l38.4,0c0,0,0,0,0,0
		c12.4-0.2,24-5.2,32.7-14.1c6.8-7,11.3-15.7,12.9-25.2c1.6-0.1,3.1-0.2,4.7-0.2c11.2,0.2,21.8,4.7,29.8,12.7
		c8,8,12.4,18.6,12.5,29.9c0.1,12.5-5.3,24.4-14.7,32.6c-1,0.9-1.5,2.1-1.4,3.4c0.1,1.3,0.9,2.5,2,3.1l6.7,4l-36.3,0
		c-21.8-0.4-39.8-17.1-41.8-38.8c-0.1-1.2-1.1-2-2.3-1.9c-1.2,0.1-2,1.1-1.9,2.3c2.3,23.8,22,42.2,46,42.6c0,0,0,0,0,0l38.4,0
		c1.7,0,3.1-1.1,3.6-2.7C322.8,258.4,322.1,256.8,320.7,255.9L320.7,255.9z M230.7,188.7c-3.8,0-6.8,3.1-6.8,6.8
		c0,3.8,3.1,6.8,6.8,6.8c3.8,0,6.8-3.1,6.8-6.8S234.5,188.7,230.7,188.7L230.7,188.7z M230.7,198.2c-1.4,0-2.6-1.2-2.6-2.6
		s1.2-2.6,2.6-2.6c1.4,0,2.6,1.2,2.6,2.6S232.2,198.2,230.7,198.2z M288.1,215.6c0-3.8-3.1-6.8-6.8-6.8s-6.8,3.1-6.8,6.8
		c0,3.8,3.1,6.8,6.8,6.8S288.1,219.4,288.1,215.6L288.1,215.6z M278.7,215.6c0-1.4,1.2-2.6,2.6-2.6c1.4,0,2.6,1.2,2.6,2.6
		s-1.2,2.6-2.6,2.6C279.8,218.2,278.7,217.1,278.7,215.6L278.7,215.6z M245.8,162.9c4-4.2,6-9.7,5.7-15.4
		c-0.6-11-9.8-19.7-20.8-19.7c-10.3,0-19.2,7.7-20.6,17.9c-0.1,1-0.2,1.9-0.2,2.9c0,3.5,2.9,6.4,6.4,6.4s6.4-2.9,6.4-6.4
		c0-0.4,0-0.8,0.1-1.1c0.6-4,4.1-7,8.2-6.9c4.2,0.1,7.7,3.4,7.9,7.6c0.1,2.2-0.7,4.4-2.2,6c-1.5,1.6-3.6,2.5-5.9,2.5
		c-3.5,0-6.4,2.9-6.4,6.4v15.1c0,3.5,2.9,6.4,6.4,6.4s6.4-2.9,6.4-6.4v-9.7C240.4,167.3,243.4,165.5,245.8,162.9L245.8,162.9z
		 M234.5,164.7c-1,0.2-1.6,1.1-1.6,2.1v11.4c0,1.2-1,2.1-2.1,2.1c-1.2,0-2.1-1-2.1-2.1V163c0-1.2,1-2.1,2.1-2.1
		c3.4,0,6.6-1.4,8.9-3.8c2.4-2.5,3.5-5.7,3.4-9.1c-0.3-6.5-5.8-11.7-12.3-11.7c-6.1,0-11.4,4.5-12.2,10.6c-0.2,1.6,0,3.8-2.2,3.8
		c-2.4,0-2.2-2.8-2-4.4c1.1-8.1,8.2-14.3,16.4-14.3c8.7,0,16.1,6.9,16.5,15.7c0.2,4.6-1.4,9-4.5,12.3
		C240.5,162.3,237.7,164,234.5,164.7L234.5,164.7z"/>
</g>
<g>
	<g>
		<path class="st1" d="M256,316.9c-72.2,0-130.9-58.7-130.9-130.9S183.8,55.1,256,55.1S386.9,113.8,386.9,186S328.2,316.9,256,316.9
			z M256,67.1c-65.6,0-118.9,53.4-118.9,118.9S190.4,304.9,256,304.9S374.9,251.5,374.9,186S321.6,67.1,256,67.1z"/>
	</g>
</g>
<text transform="matrix(1 0 0 1 212.5728 394.9962)" class="st1 st2 st3">FAQ</text>
</svg>
