<?xml version="1.0"?>
<svg xmlns="http://www.w3.org/2000/svg" enable-background="new 0 0 512 512" height="512px" viewBox="0 0 512 512" width="512px"><g><g id="_x31_050_x2C__pencil_x2C__study_x2C__school_x2C__write"><path d="m414.841 97.158c-23.452-23.45-61.407-23.445-84.853 0-219.619 219.628-205.282 205.228-205.909 206.042-.272.354-.499.672-.803 1.215-.034.061-.073.117-.106.18-.156.294-.365.741-.534 1.186l-42.427 113.137c-1.377 3.671-.48 7.809 2.292 10.582 2.79 2.789 6.934 3.66 10.582 2.292 24.854-9.322 110.953-41.601 113.264-42.483 1.149-.45 2.208-1.092 3.208-2.031.545-.513 158.775-158.758 205.286-205.266 23.452-23.452 23.447-61.406 0-84.854zm-212.131 268.701-56.568-56.568 169.705-169.705 56.568 56.567zm-66.801-38.516 48.748 48.748-77.997 29.249zm264.79-159.474-14.142 14.142-56.568-56.567 14.143-14.143c7.555-7.555 17.599-11.715 28.283-11.715 22.11 0 40 17.893 40 40 0 10.684-4.161 20.728-11.716 28.283z" data-original="#000000" class="active-path" data-old_color="#000000" fill="#40E0EE"/></g></g> </svg>
