<?xml version="1.0" encoding="utf-8"?>
<!-- Generator: Adobe Illustrator 23.0.0, SVG Export Plug-In . SVG Version: 6.00 Build 0)  -->
<svg version="1.1" id="Layer_1" xmlns="http://www.w3.org/2000/svg" xmlns:xlink="http://www.w3.org/1999/xlink" x="0px" y="0px"
	 viewBox="0 0 1360 768" style="enable-background:new 0 0 1360 768;" xml:space="preserve">
<style type="text/css">
	.st0{fill:#F08720;}
	.st1{fill:#FFFFFF;}
	.st2{font-family:'Helvetica';}
	.st3{font-size:42px;}
	.st4{letter-spacing:1;}
</style>
<g>
	<g>
		<path class="st0" d="M680,468.9c-72.2,0-130.9-58.7-130.9-130.9S607.8,207.1,680,207.1S810.9,265.8,810.9,338
			S752.2,468.9,680,468.9z M680,219.1c-65.6,0-118.9,53.4-118.9,118.9S614.4,456.9,680,456.9c65.6,0,118.9-53.4,118.9-118.9
			S745.6,219.1,680,219.1z"/>
	</g>
	<g>
		<g>
			<g>
				<g>
					<g>
						<path class="st1" d="M609,395.5c-1.3,0-2.3-1-2.3-2.3s1-2.3,2.3-2.3h0c1.3,0,2.3,1,2.3,2.3S610.3,395.5,609,395.5z"/>
					</g>
				</g>
				<g>
					<g>
						<path class="st1" d="M740.8,371.2c-0.8,0-1.6-0.4-2-1.2c-0.6-1.1-0.3-2.5,0.8-3.2c2.1-1.2,3.5-3.5,3.5-6
							c0-3.8-3.1-6.9-6.9-6.9c-1.3,0-2.3-1-2.3-2.3c0-1.3,1-2.3,2.3-2.3c6.4,0,11.6,5.2,11.6,11.6c0,4.1-2.2,8-5.8,10
							C741.6,371.1,741.2,371.2,740.8,371.2L740.8,371.2z"/>
					</g>
				</g>
				<g>
					<g>
						<path class="st1" d="M678.3,404.8c-0.8,0-1.6-0.4-2-1.2c-0.6-1.1-0.2-2.5,0.9-3.1l62.4-33.6c1.1-0.6,2.5-0.2,3.1,0.9
							c0.6,1.1,0.2,2.5-0.9,3.1l-62.4,33.6C679.1,404.7,678.7,404.8,678.3,404.8z"/>
					</g>
				</g>
				<g>
					<g>
						<path class="st1" d="M678.3,404.8c-0.1,0-0.2,0-0.3,0l-50.9-6.9c-1.3-0.2-2.2-1.3-2-2.6c0.2-1.3,1.3-2.2,2.6-2l50.9,6.9
							c1.3,0.2,2.2,1.3,2,2.6C680.5,403.9,679.5,404.8,678.3,404.8L678.3,404.8z"/>
					</g>
				</g>
				<g>
					<g>
						<path class="st1" d="M627.4,400.1h-6.9c-1.3,0-2.3-1-2.3-2.3s1-2.3,2.3-2.3h4.6v-53.2h-4.6c-1.3,0-2.3-1-2.3-2.3
							c0-1.3,1-2.3,2.3-2.3h6.9c1.3,0,2.3,1,2.3,2.3v57.8C629.8,399.1,628.7,400.1,627.4,400.1L627.4,400.1z"/>
					</g>
				</g>
				<g>
					<g>
						<path class="st1" d="M689.9,360.8c-1.1,0-2.1-0.8-2.3-2c-0.2-1.3,0.7-2.4,1.9-2.6l44.7-6.8c1.3-0.2,2.4,0.7,2.6,1.9
							c0.2,1.3-0.7,2.4-1.9,2.6l-44.7,6.8C690.1,360.8,690,360.8,689.9,360.8L689.9,360.8z"/>
					</g>
				</g>
				<g>
					<g>
						<path class="st1" d="M680.6,370.1c-1.3,0-2.3-1-2.3-2.3c0-1.3,1-2.3,2.3-2.3c3.8,0,6.9-3.1,6.9-6.9c0-3.4-2.4-6.3-5.7-6.8
							c-1.3-0.2-2.1-1.4-1.9-2.7c0.2-1.3,1.4-2.1,2.7-1.9c5.6,1,9.6,5.7,9.6,11.4C692.2,364.9,687,370.1,680.6,370.1L680.6,370.1z"
							/>
					</g>
				</g>
				<g>
					<g>
						<path class="st1" d="M682.2,351.7c-0.1,0-0.3,0-0.4,0l-36.3-7.1c-1.3-0.2-2.1-1.5-1.8-2.7c0.2-1.3,1.5-2.1,2.7-1.8l36.3,7.1
							c1.3,0.2,2.1,1.5,1.8,2.7C684.3,350.9,683.3,351.7,682.2,351.7L682.2,351.7z"/>
					</g>
				</g>
				<g>
					<g>
						<path class="st1" d="M645.9,344.6h-18.5c-1.3,0-2.3-1-2.3-2.3c0-1.3,1-2.3,2.3-2.3h18.5c1.3,0,2.3,1,2.3,2.3
							C648.3,343.6,647.2,344.6,645.9,344.6z"/>
					</g>
				</g>
				<g>
					<g>
						<path class="st1" d="M679.7,370c-0.1,0-0.1,0-0.2,0l-29.1-2.3c-1.3-0.1-2.2-1.2-2.1-2.5c0.1-1.3,1.2-2.2,2.5-2.1l29.1,2.3
							c1.3,0.1,2.2,1.2,2.1,2.5C681.9,369.1,680.9,370,679.7,370L679.7,370z"/>
					</g>
				</g>
				<g>
					<g>
						<path class="st1" d="M734.5,354c-1.1,0-2.1-0.8-2.3-1.9c-0.2-1.3,0.6-2.5,1.9-2.7c0.6-0.1,1.3-0.2,2-0.2c1.3,0,2.3,1,2.3,2.3
							s-1,2.3-2.3,2.3c-0.4,0-0.8,0-1.2,0.1C734.8,354,734.7,354,734.5,354L734.5,354z"/>
					</g>
				</g>
				<g>
					<g>
						<path class="st1" d="M680.6,370.1c-0.4,0-0.8,0-1.2-0.1c-1.3-0.1-2.2-1.3-2.1-2.5c0.1-1.3,1.3-2.2,2.5-2.1c0.2,0,0.5,0,0.7,0
							c1.3,0,2.3,1,2.3,2.3S681.9,370.1,680.6,370.1L680.6,370.1z"/>
					</g>
				</g>
			</g>
			<g>
				<g>
					<path class="st1" d="M620.5,404.8H602c-1.3,0-2.3-1-2.3-2.3c0-1.3,1-2.3,2.3-2.3h16.2v-62.4H602c-1.3,0-2.3-1-2.3-2.3
						s1-2.3,2.3-2.3h18.5c1.3,0,2.3,1,2.3,2.3v67.1C622.8,403.7,621.8,404.8,620.5,404.8z"/>
				</g>
			</g>
		</g>
		<g>
			<g>
				<g>
					<path class="st1" d="M669.1,349.1c-1.3,0-2.3-1-2.3-2.3v-64.7c0-1.3,1-2.3,2.3-2.3s2.3,1,2.3,2.3v64.7
						C671.4,348.1,670.3,349.1,669.1,349.1z"/>
				</g>
			</g>
			<g>
				<g>
					<path class="st1" d="M701.4,359.1c-1.3,0-2.3-1-2.3-2.3v-74.6c0-1.3,1-2.3,2.3-2.3s2.3,1,2.3,2.3v74.6
						C703.8,358,702.7,359.1,701.4,359.1z"/>
				</g>
			</g>
			<g>
				<g>
					<path class="st1" d="M701.4,284.5h-32.4c-1.3,0-2.3-1-2.3-2.3c0-1.3,1-2.3,2.3-2.3h32.4c1.3,0,2.3,1,2.3,2.3
						C703.8,283.5,702.7,284.5,701.4,284.5z"/>
				</g>
			</g>
			<g>
				<g>
					<path class="st1" d="M680.6,344.6c-1.3,0-2.3-1-2.3-2.3v-48.6c0-1.3,1-2.3,2.3-2.3s2.3,1,2.3,2.3v48.6
						C682.9,343.6,681.9,344.6,680.6,344.6z"/>
				</g>
			</g>
			<g>
				<g>
					<path class="st1" d="M689.9,344.6c-1.3,0-2.3-1-2.3-2.3v-48.6c0-1.3,1-2.3,2.3-2.3s2.3,1,2.3,2.3v48.6
						C692.2,343.6,691.2,344.6,689.9,344.6z"/>
				</g>
			</g>
			<g>
				<g>
					<path class="st1" d="M678.3,284.5c-1.3,0-2.3-1-2.3-2.3v-9.3c0-1.3,1-2.3,2.3-2.3s2.3,1,2.3,2.3v9.3
						C680.6,283.5,679.6,284.5,678.3,284.5z"/>
				</g>
			</g>
			<g>
				<g>
					<path class="st1" d="M692.2,275.2h-13.9c-1.3,0-2.3-1-2.3-2.3c0-1.3,1-2.3,2.3-2.3h13.9c1.3,0,2.3,1,2.3,2.3
						C694.5,274.2,693.5,275.2,692.2,275.2z"/>
				</g>
			</g>
			<g>
				<g>
					<path class="st1" d="M692.2,284.5c-1.3,0-2.3-1-2.3-2.3v-9.3c0-1.3,1-2.3,2.3-2.3s2.3,1,2.3,2.3v9.3
						C694.5,283.5,693.5,284.5,692.2,284.5z"/>
				</g>
			</g>
			<g>
				<g>
					<path class="st1" d="M685.3,275.2c-1.3,0-2.3-1-2.3-2.3v-9.2c0-1.3,1-2.3,2.3-2.3s2.3,1,2.3,2.3v9.2
						C687.6,274.2,686.5,275.2,685.3,275.2z"/>
				</g>
			</g>
			<g>
				<g>
					<path class="st1" d="M701.4,359.1c-1.3,0-2.3-1-2.3-2.3v-49.1c0-1.3,1-2.3,2.3-2.3s2.3,1,2.3,2.3v49.1
						C703.7,358,702.7,359.1,701.4,359.1z"/>
				</g>
			</g>
			<g>
				<g>
					<path class="st1" d="M724.6,309.9h-23.1c-1.3,0-2.3-1-2.3-2.3s1-2.3,2.3-2.3h23.1c1.3,0,2.3,1,2.3,2.3S725.8,309.9,724.6,309.9
						z"/>
				</g>
			</g>
			<g>
				<g>
					<path class="st1" d="M724.6,355.5c-1.3,0-2.3-1-2.3-2.3v-45.6c0-1.3,1-2.3,2.3-2.3s2.3,1,2.3,2.3v45.6
						C726.9,354.5,725.8,355.5,724.6,355.5z"/>
				</g>
			</g>
			<g>
				<g>
					<path class="st1" d="M717.6,319.2h-9.3c-1.3,0-2.3-1-2.3-2.3s1-2.3,2.3-2.3h9.3c1.3,0,2.3,1,2.3,2.3S718.9,319.2,717.6,319.2z"
						/>
				</g>
			</g>
			<g>
				<g>
					<path class="st1" d="M717.6,328.4h-9.3c-1.3,0-2.3-1-2.3-2.3s1-2.3,2.3-2.3h9.3c1.3,0,2.3,1,2.3,2.3S718.9,328.4,717.6,328.4z"
						/>
				</g>
			</g>
			<g>
				<g>
					<path class="st1" d="M717.6,337.7h-9.3c-1.3,0-2.3-1-2.3-2.3c0-1.3,1-2.3,2.3-2.3h9.3c1.3,0,2.3,1,2.3,2.3
						C719.9,336.6,718.9,337.7,717.6,337.7z"/>
				</g>
			</g>
			<g>
				<g>
					<path class="st1" d="M717.6,346.9h-9.3c-1.3,0-2.3-1-2.3-2.3c0-1.3,1-2.3,2.3-2.3h9.3c1.3,0,2.3,1,2.3,2.3
						C719.9,345.9,718.9,346.9,717.6,346.9z"/>
				</g>
			</g>
			<g>
				<g>
					<path class="st1" d="M669.1,309.9H646c-1.3,0-2.3-1-2.3-2.3s1-2.3,2.3-2.3h23.1c1.3,0,2.3,1,2.3,2.3S670.4,309.9,669.1,309.9z"
						/>
				</g>
			</g>
			<g>
				<g>
					<path class="st1" d="M646,344.6c-1.3,0-2.3-1-2.3-2.3v-34.7c0-1.3,1-2.3,2.3-2.3s2.3,1,2.3,2.3v34.7
						C648.3,343.6,647.2,344.6,646,344.6z"/>
				</g>
			</g>
			<g>
				<g>
					<path class="st1" d="M662.1,319.2h-9.3c-1.3,0-2.3-1-2.3-2.3s1-2.3,2.3-2.3h9.3c1.3,0,2.3,1,2.3,2.3S663.4,319.2,662.1,319.2z"
						/>
				</g>
			</g>
			<g>
				<g>
					<path class="st1" d="M662.1,328.4h-9.3c-1.3,0-2.3-1-2.3-2.3s1-2.3,2.3-2.3h9.3c1.3,0,2.3,1,2.3,2.3S663.4,328.4,662.1,328.4z"
						/>
				</g>
			</g>
			<g>
				<g>
					<path class="st1" d="M662.1,337.7h-9.3c-1.3,0-2.3-1-2.3-2.3c0-1.3,1-2.3,2.3-2.3h9.3c1.3,0,2.3,1,2.3,2.3
						C664.5,336.6,663.4,337.7,662.1,337.7z"/>
				</g>
			</g>
		</g>
	</g>
</g>
<text transform="matrix(1 0 0 1 607.5752 546.9961)"><tspan x="0" y="0" class="st1 st2 st3 st4">Perfil</tspan><tspan x="-76.9" y="37" class="st0 st2 st3 st4">empresarial</tspan></text>
</svg>
