<?xml version="1.0" encoding="utf-8"?>
<!-- Generator: Adobe Illustrator 23.0.0, SVG Export Plug-In . SVG Version: 6.00 Build 0)  -->
<svg version="1.1" id="Layer_1" xmlns="http://www.w3.org/2000/svg" xmlns:xlink="http://www.w3.org/1999/xlink" x="0px" y="0px"
	 viewBox="0 0 1360 768" style="enable-background:new 0 0 1360 768;" xml:space="preserve">
<style type="text/css">
	.st0{fill:#F08720;}
	.st1{fill:#FFFFFF;}
	.st2{font-family:'Helvetica';}
	.st3{font-size:42px;}
	.st4{letter-spacing:1;}
</style>
<g>
	<g>
		<path class="st0" d="M680,468.9c-72.2,0-130.9-58.7-130.9-130.9S607.8,207.1,680,207.1S810.9,265.8,810.9,338
			S752.2,468.9,680,468.9z M680,219.1c-65.6,0-118.9,53.4-118.9,118.9c0,65.6,53.4,118.9,118.9,118.9c65.6,0,118.9-53.4,118.9-118.9
			C798.9,272.4,745.6,219.1,680,219.1z"/>
	</g>
	<g id="surface1">
		<g>
			<path class="st1" d="M746.8,333.3l-6.1-2.6v-4.2c0.1-25.5-16-48.2-40.1-56.6V264c0-1.7-1.4-3.1-3.1-3.1h-33.7
				c-1.7,0-3.1,1.4-3.1,3.1v5.9c-24.1,8.4-40.1,31.1-40.1,56.6v4.2l-6,2.5c-1.2,0.5-1.9,1.6-1.9,2.9v16.5c0,1.7,1.4,3.1,3.1,3.1h4.1
				v6.3c0,1.7,1.4,3.1,3.1,3.1h11.3c1.1,3.9,2.6,7.7,4.7,11.3l-8,8c-1.2,1.2-1.2,3.2,0,4.4l13.4,13.4c1.2,1.2,3.2,1.2,4.4,0l8-8
				c3.5,2,7.3,3.6,11.2,4.7v11.3c0,1.7,1.4,3.1,3.1,3.1h18.9c1.7,0,3.1-1.4,3.1-3.1V399c3.9-1.1,7.7-2.6,11.3-4.7l8,8
				c1.2,1.2,3.2,1.2,4.4,0l13.4-13.4c1.2-1.2,1.2-3.2,0-4.4l-8-8c2-3.5,3.6-7.3,4.7-11.3h11.3c1.7,0,3.1-1.4,3.1-3.1v-6.3h4.1
				c1.7,0,3.1-1.4,3.1-3.1v-16.5C748.8,334.9,748,333.8,746.8,333.3z M667,267.2h27.4v52.6h-27.4L667,267.2z M735.3,359h-10.5
				c-1.5,0-2.8,1-3.1,2.5c-1.1,4.9-3,9.6-5.8,13.8c-0.8,1.2-0.6,2.9,0.4,3.9l7.5,7.5l-9,8.9l-7.5-7.5c-1.1-1-2.7-1.2-3.9-0.4
				c-4.2,2.7-8.9,4.7-13.8,5.8c-1.5,0.3-2.5,1.6-2.5,3.1v10.6h-12.6v-10.7c0-1.5-1-2.8-2.5-3.1c-4.9-1.1-9.6-3-13.8-5.8
				c-1.2-0.8-2.9-0.6-3.9,0.4l-7.5,7.5l-8.9-8.9l7.5-7.5c1-1.1,1.2-2.7,0.4-3.9c-2.8-4.2-4.8-8.9-5.9-13.8c-0.3-1.5-1.6-2.5-3.1-2.5
				h-10.5v-3.1H655c1.7,14.2,14.6,24.3,28.9,22.6c11.8-1.4,21.2-10.8,22.6-22.6h28.8L735.3,359z M661.4,355.8h38.7
				c-1.7,10.7-11.8,18-22.5,16.2C669.3,370.7,662.7,364.2,661.4,355.8L661.4,355.8z M742.5,349.5H619v-11.3l6.1-2.6
				c1.2-0.5,1.9-1.6,1.9-2.9v-6.3c-0.1-22,13.3-41.7,33.7-49.9v46.3c0,1.7,1.4,3.1,3.1,3.1h33.7c1.7,0,3.1-1.4,3.1-3.1v-46.3
				c20.5,8.1,33.8,27.9,33.8,49.9v6.3c0,1.3,0.8,2.4,1.9,2.9l6.1,2.6L742.5,349.5L742.5,349.5z"/>
		</g>
	</g>
</g>
<text transform="matrix(1 0 0 1 573.9336 554.9961)"><tspan x="0" y="0" class="st1 st2 st3 st4">Perfil de</tspan><tspan x="-51.4" y="37" class="st0 st2 st3 st4">profissional</tspan></text>
</svg>
