<?xml version="1.0" encoding="utf-8"?>
<!-- Generator: Adobe Illustrator 23.0.0, SVG Export Plug-In . SVG Version: 6.00 Build 0)  -->
<svg version="1.1" id="Layer_1" xmlns="http://www.w3.org/2000/svg" xmlns:xlink="http://www.w3.org/1999/xlink" x="0px" y="0px"
	 viewBox="0 0 1360 768" style="enable-background:new 0 0 1360 768;" xml:space="preserve">
<style type="text/css">
	.st0{fill:#F08720;}
	.st1{fill:#FFFFFF;}
	.st2{font-family:'Helvetica';}
	.st3{font-size:42px;}
</style>
<g>
	<g>
		<path class="st0" d="M680,468.9c-72.2,0-130.9-58.7-130.9-130.9S607.8,207.1,680,207.1S810.9,265.8,810.9,338
			S752.2,468.9,680,468.9z M680,219.1c-65.6,0-118.9,53.4-118.9,118.9S614.4,456.9,680,456.9S798.9,403.5,798.9,338
			S745.6,219.1,680,219.1z"/>
	</g>
	<g>
		<g>
			<path class="st1" d="M754.5,327.4v-0.2c-0.1-0.8-0.2-1.5-0.3-2.3c-0.2-1.7-0.4-3.4-0.7-5.1c-5.3-32.1-30.5-56.9-62.7-61.7
				c-1.7-0.2-3.4-0.4-5-0.6h-0.3c-0.7-0.1-1.3-0.1-2-0.2h-0.2h-6.8l-2.1,0.3c-1.2,0.2-2.4,0.3-3.5,0.5c-15.3,1.8-30.1,8.8-41.7,19.7
				c-11.6,10.9-19.4,25.2-22.1,40.3c-0.4,2.3-0.7,4.6-1,6.8c-0.1,1-0.3,2.1-0.4,3.1v0.3v7.2v0.2c0.1,0.8,0.2,1.6,0.3,2.5
				c0.2,1.8,0.5,3.7,0.8,5.6c4,22.8,16.2,40.4,36,52.3c6.7,4,14.1,6.9,22,8.4c0.8,0.2,1.1,0.4,1.5,1.2c2.8,5.9,5.8,11.7,8,16.1
				c0.5,1.1,1.2,1.9,1.9,2.7c0.2,0.3,0.5,0.6,0.7,0.8l1,1.3h4.6l1-1.3c0.2-0.3,0.4-0.5,0.7-0.8c0.6-0.8,1.3-1.6,1.8-2.7
				c3.3-6.4,5.8-11.4,8-16c0.4-0.8,0.7-1,1.5-1.2c20-4.3,35.8-15.2,47.1-32.3c6.8-10.4,10.8-22,11.8-34.7c0-0.2,0.1-0.5,0.1-0.8
				c0-0.2,0.1-0.4,0.1-0.7l0.1-0.3L754.5,327.4z M748.3,325.7l-0.5,0.2c0.1,0.7,0.2,1.4,0.3,2v7.3v0.2c-0.1,0.5-0.2,1-0.3,1.7
				c-0.9,11.5-4.5,22.2-10.7,31.6c-10.3,15.6-24.8,25.6-43.1,29.5c-2.8,0.6-4.7,2.1-6,4.7c-2.2,4.6-4.7,9.5-7.9,15.9
				c0,0,0,0.1-0.1,0.1c0,0,0-0.1-0.1-0.1c-2.2-4.4-5.2-10.1-7.9-15.9c-1.2-2.6-3.2-4.1-6-4.7c-7.2-1.4-13.9-4-20-7.6
				c-18.2-11-29.3-27.1-33-48c-0.3-1.7-0.5-3.5-0.7-5.3c-0.1-0.8-0.2-1.6-0.3-2.4v-6.3c0.1-1,0.3-1.9,0.4-2.9l-0.5-0.1h0.5
				c0.3-2.2,0.6-4.4,1-6.5c5-28.4,29.5-51.4,58.2-54.8c1.3-0.1,2.6-0.3,3.8-0.5l1.5-0.2h6c0.7,0.1,1.4,0.2,2.2,0.2
				c1.6,0.2,3.2,0.4,4.8,0.6c29.5,4.4,52.5,27.1,57.4,56.4c0.3,1.6,0.5,3.2,0.7,4.8L748.3,325.7L748.3,325.7z"/>
		</g>
		<g>
			<path class="st1" d="M680,303.7c-11.4,0-20.6,9.3-20.6,20.6c0,11.4,9.3,20.6,20.6,20.6s20.6-9.3,20.6-20.6S691.4,303.7,680,303.7
				z M680,338.6c-7.8,0-14.2-6.4-14.2-14.2c0-7.8,6.4-14.2,14.2-14.2s14.2,6.4,14.2,14.2S687.8,338.6,680,338.6z"/>
		</g>
		<g>
			<path class="st1" d="M680,286.3c-25.6,0-46.5,20.8-46.5,46.5c0,10.2,3.3,19.7,9,27.4v0.1l1.4,1.7c5.4,6.7,12.4,11.6,20.2,14.4
				l0,0c0.6,0.2,1.2,0.4,1.8,0.6c0.2,0.1,0.3,0.1,0.5,0.2c0.5,0.2,1.1,0.3,1.6,0.5c0.3,0.1,0.6,0.1,0.8,0.2c0.5,0.1,0.9,0.2,1.4,0.3
				c0.4,0.1,0.7,0.1,1.1,0.2c0.4,0.1,0.8,0.2,1.3,0.2c0.4,0.1,0.9,0.1,1.3,0.2c0.4,0,0.7,0.1,1.1,0.1c0.5,0.1,1.1,0.1,1.6,0.1
				c0.3,0,0.6,0.1,0.9,0.1c0.8,0,1.7,0.1,2.5,0.1s1.7,0,2.5-0.1c0.3,0,0.6,0,1-0.1c0.5,0,1-0.1,1.5-0.1c0.4,0,0.8-0.1,1.3-0.2
				c0.4-0.1,0.8-0.1,1.1-0.2c0.5-0.1,1-0.2,1.5-0.3c0.3-0.1,0.5-0.1,0.8-0.2c0.6-0.1,1.1-0.3,1.7-0.4c0.2,0,0.3-0.1,0.5-0.1
				c9.6-2.5,18.3-8.1,24.6-16.2l1.4-1.8l-0.1-0.1c5.4-7.6,8.6-16.9,8.6-26.9C726.5,307.1,705.6,286.3,680,286.3z M698.9,368.1
				c-0.4,0.2-0.9,0.5-1.3,0.7c-0.2,0.1-0.4,0.2-0.6,0.3c-0.4,0.2-0.8,0.3-1.1,0.5c-0.3,0.1-0.6,0.2-0.8,0.3c-0.3,0.1-0.6,0.3-1,0.4
				s-0.7,0.3-1.1,0.4c-0.3,0.1-0.5,0.2-0.8,0.3c-0.4,0.1-0.9,0.3-1.3,0.4c-0.2,0.1-0.4,0.1-0.6,0.2c-0.5,0.1-1,0.2-1.5,0.4
				c-0.2,0-0.3,0.1-0.5,0.1c-0.5,0.1-1.1,0.2-1.6,0.3c-0.1,0-0.3,0.1-0.4,0.1c-0.6,0.1-1.1,0.2-1.7,0.2c-0.1,0-0.3,0-0.4,0.1
				c-0.6,0.1-1.1,0.1-1.7,0.1c-0.1,0-0.3,0-0.4,0c-0.7,0-1.4,0.1-2.1,0.1c-0.7,0-1.4,0-2.1-0.1h-0.1c-3.4-0.2-6.8-0.8-10.1-1.9
				c-0.1,0-0.1,0-0.2-0.1c-0.6-0.2-1.2-0.4-1.7-0.6c-0.1-0.1-0.3-0.1-0.4-0.2c-0.5-0.2-0.9-0.4-1.4-0.6c-0.2-0.1-0.4-0.2-0.6-0.3
				c-0.4-0.2-0.7-0.3-1.1-0.5c-0.3-0.1-0.6-0.3-0.9-0.5c-0.3-0.1-0.5-0.3-0.8-0.4c-0.4-0.2-0.7-0.4-1.1-0.6
				c-0.2-0.1-0.3-0.2-0.5-0.3c-0.4-0.3-0.9-0.5-1.3-0.8c-0.1,0-0.1-0.1-0.2-0.1c-2.6-1.8-5-3.8-7.1-6.1c2.5-2.9,6.2-4.6,10-4.6h39.7
				c3.7,0,7.2,1.6,9.7,4.3c-3,3.4-6.6,6.2-10.6,8.4C699.1,367.9,699,368,698.9,368.1z M700.1,348.8h-39.7c-5.3,0-10.3,2.2-14,5.9
				c-4.1-6.3-6.5-13.8-6.5-21.9c0-22.1,18-40.1,40.1-40.1s40.1,18,40.1,40.1c0,7.9-2.3,15.3-6.3,21.5
				C710.1,350.8,705.3,348.8,700.1,348.8z"/>
		</g>
	</g>
</g>
<text transform="matrix(1 0 0 1 601.7241 546.9962)" class="st1 st2 st3">Perfil de</text>
<text transform="matrix(1 0 0 1 549.0241 583.9962)" class="st0 st2 st3">Atendimento</text>
</svg>
