<?xml version="1.0" encoding="utf-8"?>
<!-- Generator: Adobe Illustrator 16.0.0, SVG Export Plug-In . SVG Version: 6.00 Build 0)  -->
<!DOCTYPE svg PUBLIC "-//W3C//DTD SVG 1.1//EN" "http://www.w3.org/Graphics/SVG/1.1/DTD/svg11.dtd">
<svg version="1.1" id="Layer_1" xmlns="http://www.w3.org/2000/svg" xmlns:xlink="http://www.w3.org/1999/xlink" x="0px" y="0px"
	 width="500px" height="500px" viewBox="0 0 500 500" enable-background="new 0 0 500 500" xml:space="preserve">
<path fill="#FFFFFF" d="M215.8,184.55c4.43-2.21,9.08-3.95,13.87-5.17l-11.89-8.74c-6.93-5.28,0.74-15.76,7.86-10.73l25.3,18.54
	c0.19,0.17,0.39,0.33,0.57,0.52c0.07,0.07,0.17,0.15,0.25,0.23c0.22,0.22,0.4,0.46,0.57,0.71c0.09,0.1,0.17,0.2,0.23,0.3
	c0.16,0.25,0.3,0.51,0.41,0.76c0.07,0.14,0.14,0.28,0.2,0.42c0.09,0.25,0.16,0.5,0.23,0.75c0.05,0.18,0.09,0.33,0.13,0.52
	c0.04,0.25,0.07,0.51,0.08,0.76c0,0.14,0.04,0.28,0.04,0.42v0.12c-0.01,0.23-0.04,0.47-0.08,0.7c-0.02,0.22-0.03,0.43-0.08,0.63
	c-0.04,0.2-0.09,0.3-0.14,0.45c-0.07,0.28-0.16,0.54-0.27,0.81c-0.04,0.09-0.09,0.18-0.14,0.26c-0.15,0.31-0.32,0.62-0.53,0.9
	l-0.03,0.06l-18.54,25.29c-2.16,3.03-6.38,3.72-9.38,1.54c-3-2.21-3.61-6.44-1.37-9.4l9.32-12.73c-3.81,1-7.49,2.39-10.99,4.16
	c-0.14,0.07-0.3,0.15-0.44,0.2c-2.42,1.22-4.7,2.65-6.88,4.24c-16.8,11.9-25.81,31.97-23.54,52.43
	c2.25,20.46,15.42,38.08,34.41,46.04c3.47,1.36,5.14,5.32,3.69,8.76c-1.44,3.44-5.42,5.02-8.82,3.52
	c-23.42-9.81-39.68-31.54-42.49-56.77c-2.81-25.23,8.27-50,28.95-64.73c2.87-2.11,5.93-3.97,9.13-5.56
	C215.53,184.67,215.67,184.6,215.8,184.55 M269.47,280.02c-2.96-2.16-7.13-1.52-9.3,1.46l-18.53,25.28l-0.04,0.05
	c-0.21,0.28-0.38,0.59-0.53,0.9c-0.05,0.09-0.1,0.18-0.14,0.26c-0.12,0.27-0.19,0.54-0.28,0.81c-0.04,0.15-0.1,0.3-0.14,0.45
	c-0.04,0.15-0.05,0.41-0.07,0.62c-0.04,0.23-0.05,0.47-0.07,0.71v0.11c0,0.15,0.04,0.29,0.04,0.42c0.02,0.26,0.04,0.52,0.07,0.76
	c0.04,0.17,0.1,0.34,0.14,0.52c0.05,0.26,0.13,0.52,0.23,0.76c0.05,0.14,0.13,0.27,0.2,0.41c0.11,0.26,0.25,0.52,0.4,0.75
	c0.07,0.12,0.16,0.21,0.23,0.32c0.17,0.24,0.36,0.48,0.59,0.7c0.07,0.09,0.17,0.17,0.25,0.24c0.18,0.18,0.37,0.34,0.56,0.5
	l25.3,18.54c7.13,5.03,14.79-5.47,7.87-10.73l-11.9-8.75c4.79-1.21,9.44-2.95,13.87-5.16c0.14-0.06,0.27-0.12,0.41-0.19
	c3.2-1.59,6.23-3.45,9.11-5.56c20.68-14.72,31.75-39.5,28.94-64.73c-2.81-25.22-19.08-46.95-42.49-56.77
	c-3.4-1.41-7.29,0.19-8.7,3.58c-1.42,3.4,0.18,7.29,3.57,8.7c18.98,7.96,32.16,25.58,34.42,46.04c2.25,20.44-6.76,40.53-23.56,52.42
	c-2.17,1.6-4.46,3.03-6.86,4.25c-0.16,0.07-0.3,0.12-0.45,0.21c-3.5,1.77-7.2,3.15-10.99,4.15l9.31-12.73
	C273.1,286.36,272.44,282.19,269.47,280.02 M405,51.46v62.73c0,8.87-13.31,8.87-13.31,0V51.46c-0.02-8.92-7.24-16.15-16.15-16.16
	h-47.68l-14.03,29.18c-1.12,2.3-3.44,3.76-6,3.76H186.17c-2.56,0-4.89-1.46-5.99-3.76l-14.03-29.18h-47.68
	c-8.92,0.01-16.14,7.24-16.16,16.16v205.3c0,8.87-13.3,8.87-13.3,0V51.46C89.02,35.2,102.21,22.03,118.46,22h257.07
	C391.79,22.03,404.97,35.2,405,51.46 M313.08,35.31H180.91l9.44,19.64h113.28L313.08,35.31z M95.66,323.61
	c3.67,0,6.65-2.98,6.65-6.65v-28.52c0-8.87-13.3-8.87-13.3,0v28.52C89.02,320.63,91.98,323.6,95.66,323.61 M398.33,144.61
	c-3.67,0-6.65,2.98-6.65,6.65v291.79c-0.02,8.92-7.24,16.15-16.15,16.16H118.46c-8.92-0.01-16.14-7.24-16.16-16.16v-93.46
	c0-8.88-13.3-8.88-13.3,0v93.46c0.02,16.27,13.21,29.44,29.46,29.46h257.07c16.26-0.03,29.44-13.2,29.46-29.46V151.25
	C404.99,147.58,402.01,144.61,398.33,144.61 M206.13,409.14c-8.87,0-8.87,13.31,0,13.31h81.74c8.88,0,8.88-13.31,0-13.31H206.13z"/>
<g>
</g>
<g>
</g>
<g>
</g>
<g>
</g>
<g>
</g>
<g>
</g>
<g>
</g>
<g>
</g>
<g>
</g>
<g>
</g>
<g>
</g>
<g>
</g>
<g>
</g>
<g>
</g>
<g>
</g>
</svg>
