<?xml version="1.0" encoding="utf-8"?>
<!-- Generator: Adobe Illustrator 16.0.0, SVG Export Plug-In . SVG Version: 6.00 Build 0)  -->
<!DOCTYPE svg PUBLIC "-//W3C//DTD SVG 1.1//EN" "http://www.w3.org/Graphics/SVG/1.1/DTD/svg11.dtd">
<svg version="1.1" id="Layer_1" xmlns="http://www.w3.org/2000/svg" xmlns:xlink="http://www.w3.org/1999/xlink" x="0px" y="0px"
	 width="500px" height="500px" viewBox="0 0 500 500" enable-background="new 0 0 500 500" xml:space="preserve">
<path fill="#018099" d="M371.41,385.8l21.37-36.79c4.43-7.67,14.21-10.26,21.86-5.83l60.35,35.03
	c0.05-25.73-13.19-50.74-37.06-64.61c-18.49-10.72-39.65-12.51-58.63-6.85c-3.83-1.67-7.41-4.02-10.51-7.21l-74.53-77.56
	l109.1-109.12l43.91-17.79l17.79-43.92L438.97,25l-43.89,17.85l-17.86,43.92L268.65,195.34l-54.2-56.39
	c-3.34-3.52-5.71-7.54-7.17-11.82c10.07-32.43-3.15-68.66-33.77-86.47c-23.84-13.8-52.17-12.88-74.48-0.15l60.37,35.05
	c7.6,4.44,10.24,14.23,5.81,21.86l-21.37,36.84c-4.41,7.63-14.21,10.24-21.86,5.8l-60.37-35.05c0,25.73,13.22,50.76,37.08,64.6
	c18.49,10.74,39.65,12.54,58.65,6.92c3.85,1.63,7.43,4.01,10.53,7.19l55.07,57.32l-12.1,12.1v-0.02
	c-10.82-10.78-29.14-9.99-40.98,1.86L34.42,390.43c-11.81,11.79-12.61,30.11-1.82,40.96l26.12,26.09
	c10.8,10.82,29.14,10.02,40.98-1.84l135.41-135.41c11.84-11.84,12.66-30.16,1.84-40.98h-0.05l11.62-11.59l9.78,10.24l0.02-0.05
	l63.86,66.45c3.32,3.51,5.69,7.55,7.17,11.84c-10.07,32.41,3.12,68.65,33.77,86.42c23.82,13.87,52.14,12.93,74.46,0.17l-60.37-35.05
	C369.57,403.18,366.98,393.45,371.41,385.8"/>
<path fill="#018099" d="M438.94,25.01l26.12,26.12l-17.79,43.9l-43.94,17.83l-109.1,109.09l74.56,77.56
	c3.1,3.22,6.66,5.59,10.51,7.21c6.92-2.06,14.18-3.12,21.45-3.12c12.64,0,25.44,3.19,37.18,10.02
	c23.87,13.82,37.08,38.85,37.08,64.58l-60.4-35.03c-2.49-1.48-5.28-2.18-7.99-2.18c-5.5,0-10.87,2.86-13.85,7.99l-21.37,36.84
	c-4.41,7.6-1.84,17.38,5.81,21.83l60.37,35.05c-11.33,6.46-24.18,9.88-37.23,9.88c-12.66,0-25.47-3.22-37.25-10.02
	c-30.62-17.79-43.79-54.03-33.77-86.47c-1.45-4.26-3.83-8.33-7.17-11.81l-63.86-66.47v0.05l-9.8-10.2l-11.57,11.61
	c10.82,10.77,10,29.14-1.82,40.93L99.69,455.64c-6.25,6.27-14.33,9.44-22.15,9.44c-6.95,0-13.7-2.52-18.78-7.63l-26.14-26.07
	c-10.8-10.84-10.02-29.14,1.82-40.98l135.46-135.44c6.22-6.27,14.33-9.44,22.15-9.44c6.95,0,13.7,2.53,18.79,7.6l0.05,0.02
	l12.05-12.09l-55.07-57.36c-3.1-3.17-6.66-5.53-10.51-7.19c-6.95,2.06-14.16,3.12-21.42,3.12c-12.66,0-25.47-3.22-37.23-10.01
	c-23.84-13.86-37.08-38.86-37.08-64.6l60.37,35.05c2.54,1.43,5.28,2.15,8.04,2.15c5.47,0,10.87-2.88,13.85-7.99l21.35-36.81
	c4.41-7.66,1.82-17.43-5.81-21.86L99.03,40.53c11.33-6.48,24.21-9.89,37.23-9.89c12.68,0,25.49,3.22,37.28,10.03
	c30.62,17.8,43.81,54.04,33.74,86.46c1.45,4.3,3.83,8.31,7.17,11.82l54.17,56.4l108.59-108.6l17.84-43.9L438.94,25.01"/>
<g>
</g>
<g>
</g>
<g>
</g>
<g>
</g>
<g>
</g>
<g>
</g>
<g>
</g>
<g>
</g>
<g>
</g>
<g>
</g>
<g>
</g>
<g>
</g>
<g>
</g>
<g>
</g>
<g>
</g>
</svg>
