<?xml version="1.0"?>
<svg xmlns="http://www.w3.org/2000/svg" id="Capa_1" enable-background="new 0 0 512 512" height="512px" viewBox="0 0 512 512" width="512px" class=""><g><path d="m504.5 359h-7.5v-25.973c0-14.837-2.352-29.436-6.988-43.392-3.034-9.141-17.276-4.423-14.234 4.729 4.129 12.429 6.223 25.437 6.223 38.663v25.973h-65v-11.727c0-39.576-32.197-71.773-71.773-71.773h-23.881c-2.716 0-5.219 1.468-6.545 3.838-12.828 22.922-37.083 37.162-63.302 37.162h-7c-26.219 0-50.474-14.24-63.301-37.162-1.326-2.37-3.829-3.838-6.545-3.838h-56.654v-65h57.805c2.638 0 5.082-1.386 6.437-3.65 9.927-16.597 26.341-28.729 45.035-33.286 3.359-.818 5.724-3.828 5.724-7.286v-61.278h31v61.532c0 3.422 2.315 6.409 5.629 7.263 18.3 4.714 34.385 16.762 44.13 33.055 1.354 2.265 3.799 3.65 6.437 3.65h39.277c37.494 0 72.426 16.831 95.837 46.178 6.006 7.527 17.741-1.816 11.727-9.355-26.274-32.934-65.479-51.822-107.563-51.822h-35.15c-10.811-16.169-26.94-28.458-45.322-34.571v-58.08c12.256-4.347 21.604-14.891 24.245-27.85h51.505c28.321 0 28.406-44 0-44h-77.253v-1c0-16.542-13.458-30-30-30s-30 13.458-30 30v1h-77.25c-28.321 0-28.406 44 0 44h51.505c2.783 13.655 13.013 24.626 26.245 28.493v57.107c-18.813 5.999-35.302 18.408-46.322 34.9h-54.899c-4.503-20.182-21.107-35.849-41.779-38.94v-7.002c0-27.846-22.654-50.499-50.5-50.499h-17c-4.143 0-7.5 3.357-7.5 7.5v31.441c0 9.63 15 9.644 15 0v-23.941h9.5c19.575 0 35.5 15.925 35.5 35.499v13.942 161 13.942c0 19.574-15.925 35.499-35.5 35.499h-9.5v-191.941c0-9.63-15-9.644-15 0v199.441c0 4.143 3.357 7.5 7.5 7.5h17c27.846 0 50.5-22.653 50.5-50.499v-7.002c21.349-3.193 38.36-19.8 42.181-40.94h53.206c15.962 25.398 43.961 41 74.113 41h7c30.152 0 58.151-15.602 74.113-41h19.613c31.305 0 56.773 25.469 56.773 56.773v11.727h-7.41c-4.143 0-7.5 3.357-7.5 7.5v32c0 4.143 3.357 7.5 7.5 7.5h109.911c4.143 0 7.5-3.357 7.5-7.5v-32c0-4.143-3.357-7.5-7.5-7.5zm-272-329c0-8.271 6.729-15 15-15s15 6.729 15 15v1h-30zm-99.25 23c0-3.859 3.141-7 7-7h84.75 45 84.75c8.986 0 8.999 14 0 14h-58.25-98-58.25c-3.859 0-7-3.141-7-7zm74.035 22h80.43c-3.096 8.73-11.437 15-21.215 15h-38c-9.778 0-18.119-6.27-21.215-15zm-132.285 241.203v-144.406c15.985 3.451 28 17.7 28 34.703v75c0 17.003-12.015 31.252-28 34.703zm422 74.797h-94.91v-17h7.41 80 7.5z" data-original="#000000" class="active-path" data-old_color="#000000" fill="#FFFFFF"/><path d="m359.473 225.5c-9.63 0-9.644 15 0 15 51.02 0 92.527 41.508 92.527 92.527 0 9.63 15 9.644 15 0 0-59.291-48.236-107.527-107.527-107.527z" data-original="#000000" class="active-path" data-old_color="#000000" fill="#FFFFFF"/><path d="m230.829 188.137c-14.817 3.612-27.835 13.239-35.715 26.412-2.126 3.555-.968 8.16 2.587 10.286 1.206.722 2.532 1.064 3.843 1.064 2.551 0 5.038-1.303 6.443-3.651 5.832-9.749 15.452-16.87 26.395-19.537 4.024-.981 6.491-5.039 5.511-9.063-.982-4.024-5.037-6.483-9.064-5.511z" data-original="#000000" class="active-path" data-old_color="#000000" fill="#FFFFFF"/><path d="m456.495 421.25c-2.802-4.852-10.168-4.888-12.99 0l-22.949 39.75c-6.146 10.645-6.146 23.355 0 34s17.152 17 29.444 17 23.299-6.355 29.444-17c6.146-10.645 6.146-23.355 0-34zm9.959 66.25c-3.435 5.948-9.585 9.5-16.454 9.5s-13.02-3.552-16.454-9.5-3.435-13.052 0-19l16.454-28.5 16.454 28.5c3.435 5.948 3.435 13.052 0 19z" data-original="#000000" class="active-path" data-old_color="#000000" fill="#FFFFFF"/></g> </svg>
